<svg xmlns="http://www.w3.org/2000/svg" version="1.1" xmlns:xlink="http://www.w3.org/1999/xlink" xmlns:svgjs="http://svgjs.dev/svgjs" viewBox="0 0 8.061355373709324 2.9483363383184593"><g transform="matrix(1,0,0,1,2.7479404345166993,0.4438838014695846)"><rect width="8.061355373709324" height="8.061355373709324" x="-2.7479404345166993" y="-3.000393319165017" fill="#efe0e2"></rect><g><path d=" M 0.654052734375 0.93896484375 L 0.7646484375 0.93896484375 L 0.71484375 0.779296875 L 0.37353515625 0.779296875 L 0.32373046875 0.93896484375 L 0.44091796875 0.93896484375 L 0.44091796875 1.1396484375 L 0.019775390625 1.1396484375 L 0.019775390625 0.93896484375 L 0.1025390625 0.93896484375 L 0.405029296875 0.029296875 L 0.69873046875 0.029296875 L 0.99462890625 0.93896484375 L 1.0751953125 0.93896484375 L 1.0751953125 1.1396484375 L 0.654052734375 1.1396484375 L 0.654052734375 0.93896484375 M 0.431396484375 0.591796875 L 0.655517578125 0.591796875 L 0.542724609375 0.230712890625 L 0.431396484375 0.591796875 M 1.6307373046875 0.579345703125 Q 1.619384765625 0.563232421875 1.597412109375 0.5511474609375 Q 1.575439453125 0.5390625 1.5435791015625 0.53173828125 Q 1.51171875 0.5244140625 1.471435546875 0.5244140625 Q 1.4560546875 0.5244140625 1.4384765625 0.5269775390625 Q 1.4208984375 0.529541015625 1.4058837890625 0.5361328125 Q 1.390869140625 0.542724609375 1.3809814453125 0.5540771484375 Q 1.37109375 0.5654296875 1.37109375 0.5830078125 Q 1.37109375 0.591796875 1.3736572265625 0.599853515625 Q 1.376220703125 0.60791015625 1.383544921875 0.615234375 Q 1.390869140625 0.62255859375 1.4036865234375 0.6287841796875 Q 1.41650390625 0.635009765625 1.43701171875 0.638671875 L 1.57470703125 0.665771484375 Q 1.6494140625 0.680419921875 1.699951171875 0.702392578125 Q 1.75048828125 0.724365234375 1.78125 0.753662109375 Q 1.81201171875 0.782958984375 1.8255615234375 0.81884765625 Q 1.839111328125 0.854736328125 1.839111328125 0.896484375 Q 1.839111328125 0.961669921875 1.8087158203125 1.0107421875 Q 1.7783203125 1.059814453125 1.7288818359375 1.0924072265625 Q 1.679443359375 1.125 1.6175537109375 1.1414794921875 Q 1.5556640625 1.157958984375 1.49267578125 1.157958984375 Q 1.45166015625 1.157958984375 1.4183349609375 1.15283203125 Q 1.385009765625 1.147705078125 1.3582763671875 1.138916015625 Q 1.33154296875 1.130126953125 1.3106689453125 1.1180419921875 Q 1.289794921875 1.10595703125 1.272216796875 1.09130859375 L 1.1396484375 1.09130859375 L 1.1396484375 0.8876953125 L 1.346923828125 0.8876953125 L 1.346923828125 0.89208984375 Q 1.34765625 0.913330078125 1.360107421875 0.9290771484375 Q 1.37255859375 0.94482421875 1.3927001953125 0.955810546875 Q 1.412841796875 0.966796875 1.4384765625 0.9722900390625 Q 1.464111328125 0.977783203125 1.49267578125 0.977783203125 Q 1.55859375 0.977783203125 1.588623046875 0.9605712890625 Q 1.61865234375 0.943359375 1.61865234375 0.916259765625 Q 1.61865234375 0.89501953125 1.60400390625 0.8800048828125 Q 1.58935546875 0.864990234375 1.552001953125 0.856201171875 L 1.411376953125 0.826171875 Q 1.27880859375 0.800537109375 1.21142578125 0.7408447265625 Q 1.14404296875 0.68115234375 1.14404296875 0.58740234375 Q 1.14404296875 0.532470703125 1.169677734375 0.4874267578125 Q 1.1953125 0.4423828125 1.2392578125 0.4105224609375 Q 1.283203125 0.378662109375 1.3421630859375 0.361083984375 Q 1.401123046875 0.343505859375 1.468505859375 0.343505859375 Q 1.5146484375 0.343505859375 1.550537109375 0.3489990234375 Q 1.58642578125 0.3544921875 1.614990234375 0.36328125 Q 1.6435546875 0.3720703125 1.6651611328125 0.3841552734375 Q 1.686767578125 0.396240234375 1.70361328125 0.409423828125 L 1.8310546875 0.409423828125 L 1.8310546875 0.613037109375 L 1.64208984375 0.613037109375 Q 1.64208984375 0.595458984375 1.6307373046875 0.579345703125 M 1.95556640625 0 L 2.297607421875 0 L 2.297607421875 0.451171875 Q 2.3408203125 0.41162109375 2.3924560546875 0.3892822265625 Q 2.444091796875 0.366943359375 2.50634765625 0.366943359375 Q 2.643310546875 0.366943359375 2.7158203125 0.4434814453125 Q 2.788330078125 0.52001953125 2.788330078125 0.667236328125 L 2.788330078125 0.93896484375 L 2.899658203125 0.93896484375 L 2.899658203125 1.1396484375 L 2.560546875 1.1396484375 L 2.560546875 0.718505859375 Q 2.560546875 0.65478515625 2.529052734375 0.6181640625 Q 2.49755859375 0.58154296875 2.44775390625 0.58154296875 Q 2.414794921875 0.58154296875 2.3759765625 0.599853515625 Q 2.337158203125 0.6181640625 2.297607421875 0.6533203125 L 2.297607421875 0.93896484375 L 2.408935546875 0.93896484375 L 2.408935546875 1.1396484375 L 1.95556640625 1.1396484375 L 1.95556640625 0.93896484375 L 2.07275390625 0.93896484375 L 2.07275390625 0.20068359375 L 1.95556640625 0.20068359375 L 1.95556640625 0 M 2.989013671875 0.75732421875 Q 2.989013671875 0.674560546875 3.01904296875 0.60205078125 Q 3.049072265625 0.529541015625 3.1025390625 0.475341796875 Q 3.156005859375 0.421142578125 3.22998046875 0.3896484375 Q 3.303955078125 0.358154296875 3.392578125 0.358154296875 Q 3.481201171875 0.358154296875 3.5555419921875 0.3896484375 Q 3.6298828125 0.421142578125 3.683349609375 0.475341796875 Q 3.73681640625 0.529541015625 3.7664794921875 0.60205078125 Q 3.796142578125 0.674560546875 3.796142578125 0.75732421875 Q 3.796142578125 0.840087890625 3.7672119140625 0.9129638671875 Q 3.73828125 0.98583984375 3.6851806640625 1.0404052734375 Q 3.632080078125 1.094970703125 3.5577392578125 1.12646484375 Q 3.4833984375 1.157958984375 3.392578125 1.157958984375 Q 3.301025390625 1.157958984375 3.2266845703125 1.12646484375 Q 3.15234375 1.094970703125 3.099609375 1.040771484375 Q 3.046875 0.986572265625 3.0179443359375 0.9136962890625 Q 2.989013671875 0.8408203125 2.989013671875 0.75732421875 M 3.2080078125 0.75732421875 Q 3.2080078125 0.800537109375 3.22265625 0.8367919921875 Q 3.2373046875 0.873046875 3.2625732421875 0.8994140625 Q 3.287841796875 0.92578125 3.3211669921875 0.9404296875 Q 3.3544921875 0.955078125 3.392578125 0.955078125 Q 3.431396484375 0.955078125 3.4647216796875 0.9407958984375 Q 3.498046875 0.926513671875 3.5225830078125 0.900146484375 Q 3.547119140625 0.873779296875 3.56103515625 0.8375244140625 Q 3.574951171875 0.80126953125 3.574951171875 0.75732421875 Q 3.574951171875 0.7119140625 3.56103515625 0.67529296875 Q 3.547119140625 0.638671875 3.5225830078125 0.613037109375 Q 3.498046875 0.58740234375 3.4647216796875 0.5738525390625 Q 3.431396484375 0.560302734375 3.392578125 0.56103515625 Q 3.3544921875 0.560302734375 3.3211669921875 0.5738525390625 Q 3.287841796875 0.58740234375 3.2625732421875 0.613037109375 Q 3.2373046875 0.638671875 3.22265625 0.67529296875 Q 3.2080078125 0.7119140625 3.2080078125 0.75732421875 M 3.898681640625 0 L 4.24072265625 0 L 4.24072265625 0.656982421875 L 4.368896484375 0.656982421875 L 4.421630859375 0.58154296875 L 4.421630859375 0.380859375 L 4.814208984375 0.380859375 L 4.814208984375 0.58154296875 L 4.677978515625 0.58154296875 L 4.53662109375 0.744873046875 L 4.680908203125 0.919189453125 L 4.806884765625 0.919189453125 L 4.806884765625 1.1396484375 L 4.60107421875 1.1396484375 L 4.35498046875 0.814453125 L 4.24072265625 0.814453125 L 4.24072265625 0.93896484375 L 4.318359375 0.93896484375 L 4.318359375 1.1396484375 L 3.898681640625 1.1396484375 L 3.898681640625 0.93896484375 L 4.015869140625 0.93896484375 L 4.015869140625 0.20068359375 L 3.898681640625 0.20068359375 L 3.898681640625 0" fill="#574848" fill-rule="nonzero"></path></g><g><path d=" M 0.04364013671875 1.9122900390624997 L 0.08758544921875 1.9122900390624997 L 0.08758544921875 1.5549291992187497 L 0.04364013671875 1.5549291992187497 L 0.04364013671875 1.5015234374999997 L 0.25177001953125 1.5021337890624997 Q 0.27984619140625 1.5021337890624997 0.3045654296875 1.5126623535156247 Q 0.32928466796875 1.5231909179687497 0.34759521484375 1.5413488769531247 Q 0.36590576171875 1.5595068359374997 0.376434326171875 1.5842260742187497 Q 0.386962890625 1.6089453124999997 0.386962890625 1.6373266601562497 Q 0.386962890625 1.6669287109374997 0.3704833984375 1.6913427734374997 Q 0.35400390625 1.7157568359374997 0.323486328125 1.7304052734374997 Q 0.33843994140625 1.7383398437499997 0.35064697265625 1.7488684082031247 Q 0.36285400390625 1.7593969726562497 0.37139892578125 1.7719091796874997 Q 0.37994384765625 1.7844213867187497 0.384674072265625 1.7984594726562497 Q 0.389404296875 1.8124975585937497 0.389404296875 1.8271459960937497 Q 0.389404296875 1.8561376953124997 0.378875732421875 1.8811621093749997 Q 0.36834716796875 1.9061865234374997 0.35003662109375 1.9248022460937497 Q 0.33172607421875 1.9434179687499997 0.307159423828125 1.9540991210937497 Q 0.2825927734375 1.9647802734374997 0.2545166015625 1.9647802734374997 L 0.04364013671875 1.9647802734374997 L 0.04364013671875 1.9122900390624997 M 0.14739990234375 1.7590917968749997 L 0.14739990234375 1.9122900390624997 L 0.255126953125 1.9122900390624997 Q 0.269775390625 1.9122900390624997 0.28228759765625 1.9049658203124997 Q 0.2947998046875 1.8976416015624997 0.30426025390625 1.8858923339843747 Q 0.313720703125 1.8741430664062497 0.319061279296875 1.8591894531249997 Q 0.32440185546875 1.8442358398437497 0.32440185546875 1.8286718749999997 Q 0.32440185546875 1.8152441406249997 0.31890869140625 1.8027319335937497 Q 0.31341552734375 1.7902197265624997 0.304107666015625 1.7804541015624997 Q 0.2947998046875 1.7706884765624997 0.282135009765625 1.7648901367187497 Q 0.26947021484375 1.7590917968749997 0.255126953125 1.7590917968749997 L 0.14739990234375 1.7590917968749997 M 0.14739990234375 1.5549291992187497 L 0.14739990234375 1.7059912109374997 L 0.25238037109375 1.7059912109374997 Q 0.26702880859375 1.7059912109374997 0.279693603515625 1.7001928710937497 Q 0.2923583984375 1.6943945312499997 0.301666259765625 1.6846289062499997 Q 0.31097412109375 1.6748632812499997 0.31646728515625 1.6620458984374997 Q 0.32196044921875 1.6492285156249997 0.32196044921875 1.6354956054687497 Q 0.32196044921875 1.6205419921874997 0.31646728515625 1.6060461425781247 Q 0.31097412109375 1.5915502929687497 0.301513671875 1.5802587890624997 Q 0.29205322265625 1.5689672851562497 0.279388427734375 1.5619482421874997 Q 0.2667236328125 1.5549291992187497 0.25238037109375 1.5549291992187497 L 0.14739990234375 1.5549291992187497 M 0.44189453125 1.8066992187499997 Q 0.44219970703125 1.7691625976562497 0.453948974609375 1.7383398437499997 Q 0.4656982421875 1.7075170898437497 0.48675537109375 1.6853918457031247 Q 0.5078125 1.6632666015624997 0.53680419921875 1.6513647460937497 Q 0.5657958984375 1.6394628906249997 0.6005859375 1.6394628906249997 Q 0.63568115234375 1.6394628906249997 0.664825439453125 1.6513647460937497 Q 0.6939697265625 1.6632666015624997 0.7147216796875 1.6850866699218747 Q 0.7354736328125 1.7069067382812497 0.7470703125 1.7377294921874997 Q 0.7586669921875 1.7685522460937497 0.7586669921875 1.8060888671874997 Q 0.7586669921875 1.8430151367187497 0.7470703125 1.8739904785156247 Q 0.7354736328125 1.9049658203124997 0.7147216796875 1.9272436523437497 Q 0.6939697265625 1.9495214843749997 0.664825439453125 1.9618811035156247 Q 0.63568115234375 1.9742407226562497 0.6005859375 1.9742407226562497 Q 0.56488037109375 1.9742407226562497 0.535888671875 1.9620336914062497 Q 0.50689697265625 1.9498266601562497 0.48614501953125 1.9277014160156247 Q 0.46539306640625 1.9055761718749997 0.45379638671875 1.8747534179687497 Q 0.44219970703125 1.8439306640624997 0.44189453125 1.8066992187499997 M 0.50201416015625 1.8066992187499997 Q 0.50201416015625 1.8338598632812497 0.509796142578125 1.8558325195312497 Q 0.517578125 1.8778051757812497 0.531158447265625 1.8932165527343747 Q 0.54473876953125 1.9086279296874997 0.562591552734375 1.9170202636718747 Q 0.5804443359375 1.9254125976562497 0.6005859375 1.9254125976562497 Q 0.62164306640625 1.9254125976562497 0.639801025390625 1.9171728515624997 Q 0.657958984375 1.9089331054687497 0.67138671875 1.8935217285156247 Q 0.684814453125 1.8781103515624997 0.69244384765625 1.8561376953124997 Q 0.7000732421875 1.8341650390624997 0.7000732421875 1.8066992187499997 Q 0.7000732421875 1.7780126953124997 0.69244384765625 1.7557348632812497 Q 0.684814453125 1.7334570312499997 0.671539306640625 1.7185034179687497 Q 0.65826416015625 1.7035498046874997 0.63995361328125 1.6959204101562497 Q 0.62164306640625 1.6882910156249997 0.6005859375 1.6882910156249997 Q 0.5804443359375 1.6882910156249997 0.562591552734375 1.6959204101562497 Q 0.54473876953125 1.7035498046874997 0.531158447265625 1.7185034179687497 Q 0.517578125 1.7334570312499997 0.509796142578125 1.7557348632812497 Q 0.50201416015625 1.7780126953124997 0.50201416015625 1.8066992187499997 M 1.01348876953125 1.6486181640624997 L 1.11541748046875 1.6486181640624997 L 1.11541748046875 1.9122900390624997 L 1.1505126953125 1.9122900390624997 L 1.1505126953125 1.9647802734374997 L 1.058349609375 1.9647802734374997 L 1.058349609375 1.9354833984374997 Q 1.0369873046875 1.9519628906249997 1.011810302734375 1.9611181640624997 Q 0.98663330078125 1.9702734374999997 0.95794677734375 1.9702734374999997 Q 0.93414306640625 1.9702734374999997 0.914764404296875 1.9634069824218747 Q 0.8953857421875 1.9565405273437497 0.881805419921875 1.9420446777343747 Q 0.86822509765625 1.9275488281249997 0.86090087890625 1.9052709960937497 Q 0.85357666015625 1.8829931640624997 0.85357666015625 1.8521704101562497 L 0.85357666015625 1.7011083984374997 L 0.81085205078125 1.7011083984374997 L 0.81085205078125 1.6486181640624997 L 0.91278076171875 1.6486181640624997 L 0.91278076171875 1.8454565429687497 Q 0.91278076171875 1.8817724609374997 0.9295654296875 1.9003881835937497 Q 0.94635009765625 1.9190039062499997 0.977783203125 1.9190039062499997 Q 0.99639892578125 1.9190039062499997 1.016998291015625 1.9122900390624997 Q 1.03759765625 1.9055761718749997 1.055908203125 1.8936743164062497 L 1.055908203125 1.7011083984374997 L 1.01348876953125 1.7011083984374997 L 1.01348876953125 1.6486181640624997 M 1.32965087890625 1.6486181640624997 L 1.40380859375 1.6486181640624997 L 1.40380859375 1.6946997070312497 L 1.32904052734375 1.6946997070312497 L 1.328125 1.8771948242187497 Q 1.328125 1.8958105468749997 1.3323974609375 1.9074072265624997 Q 1.336669921875 1.9190039062499997 1.34613037109375 1.9234289550781247 Q 1.3555908203125 1.9278540039062497 1.36749267578125 1.9278540039062497 Q 1.38031005859375 1.9278540039062497 1.39007568359375 1.9255651855468747 Q 1.39984130859375 1.9232763671874997 1.41143798828125 1.9177832031249997 L 1.424560546875 1.9559301757812497 Q 1.409912109375 1.9635595703124997 1.39373779296875 1.9679846191406247 Q 1.3775634765625 1.9724096679687497 1.3555908203125 1.9724096679687497 Q 1.3348388671875 1.9724096679687497 1.319427490234375 1.9673742675781247 Q 1.30401611328125 1.9623388671874997 1.293487548828125 1.9504370117187497 Q 1.282958984375 1.9385351562499997 1.27777099609375 1.9185461425781247 Q 1.2725830078125 1.8985571289062497 1.2725830078125 1.8686499023437497 L 1.27349853515625 1.6946997070312497 L 1.22314453125 1.6946997070312497 L 1.22314453125 1.6486181640624997 L 1.27410888671875 1.6486181640624997 L 1.27410888671875 1.5729345703124997 L 1.32965087890625 1.5466894531249997 L 1.32965087890625 1.6486181640624997 M 1.47125244140625 1.6486181640624997 L 1.57440185546875 1.6486181640624997 L 1.57440185546875 1.9122900390624997 L 1.62200927734375 1.9122900390624997 L 1.62200927734375 1.9647802734374997 L 1.47186279296875 1.9647802734374997 L 1.47186279296875 1.9122900390624997 L 1.51702880859375 1.9122900390624997 L 1.51702880859375 1.7011083984374997 L 1.47125244140625 1.7011083984374997 L 1.47125244140625 1.6486181640624997 M 1.50634765625 1.5366186523437497 Q 1.50634765625 1.5286840820312497 1.509552001953125 1.5215124511718747 Q 1.51275634765625 1.5143408203124997 1.518096923828125 1.5090002441406247 Q 1.5234375 1.5036596679687497 1.53076171875 1.5004553222656247 Q 1.5380859375 1.4972509765624997 1.54632568359375 1.4972509765624997 Q 1.55426025390625 1.4972509765624997 1.561431884765625 1.5004553222656247 Q 1.568603515625 1.5036596679687497 1.573944091796875 1.5090002441406247 Q 1.57928466796875 1.5143408203124997 1.582489013671875 1.5215124511718747 Q 1.585693359375 1.5286840820312497 1.585693359375 1.5366186523437497 Q 1.585693359375 1.5448583984374997 1.582489013671875 1.5521826171874997 Q 1.57928466796875 1.5595068359374997 1.573944091796875 1.5651525878906247 Q 1.568603515625 1.5707983398437497 1.561431884765625 1.5740026855468747 Q 1.55426025390625 1.5772070312499997 1.54632568359375 1.5772070312499997 Q 1.5380859375 1.5772070312499997 1.53076171875 1.5740026855468747 Q 1.5234375 1.5707983398437497 1.518096923828125 1.5651525878906247 Q 1.51275634765625 1.5595068359374997 1.509552001953125 1.5521826171874997 Q 1.50634765625 1.5448583984374997 1.50634765625 1.5366186523437497 M 1.8597412109375 2.0560278320312495 L 1.905517578125 2.0560278320312495 L 1.905517578125 1.9400610351562497 Q 1.8902587890625 1.9550146484374997 1.87042236328125 1.9634069824218747 Q 1.8505859375 1.9717993164062497 1.8255615234375 1.9717993164062497 Q 1.79351806640625 1.9717993164062497 1.765899658203125 1.9606604003906247 Q 1.73828125 1.9495214843749997 1.717987060546875 1.9280065917968747 Q 1.69769287109375 1.9064916992187497 1.686248779296875 1.8752111816406247 Q 1.6748046875 1.8439306640624997 1.6748046875 1.8036474609374997 Q 1.6748046875 1.7670263671874997 1.685791015625 1.7369665527343747 Q 1.69677734375 1.7069067382812497 1.7169189453125 1.6856970214843747 Q 1.737060546875 1.6644873046874997 1.76544189453125 1.6527380371093747 Q 1.7938232421875 1.6409887695312497 1.82861328125 1.6409887695312497 Q 1.85150146484375 1.6409887695312497 1.86981201171875 1.6460241699218747 Q 1.88812255859375 1.6510595703124997 1.905517578125 1.6626562499999997 L 1.905517578125 1.6486181640624997 L 1.9622802734375 1.6486181640624997 L 1.9622802734375 2.0560278320312495 L 2.0098876953125 2.0560278320312495 L 2.0098876953125 2.1085180664062495 L 1.8597412109375 2.1085180664062495 L 1.8597412109375 2.0560278320312495 M 1.8328857421875 1.9223608398437497 Q 1.85882568359375 1.9223608398437497 1.8768310546875 1.9138159179687497 Q 1.89483642578125 1.9052709960937497 1.905517578125 1.8936743164062497 L 1.905517578125 1.7145361328124997 Q 1.8902587890625 1.7020239257812497 1.870880126953125 1.6965307617187497 Q 1.85150146484375 1.6910375976562497 1.8310546875 1.6910375976562497 Q 1.8109130859375 1.6910375976562497 1.793212890625 1.6985144042968747 Q 1.7755126953125 1.7059912109374997 1.762237548828125 1.7204870605468747 Q 1.74896240234375 1.7349829101562497 1.7413330078125 1.7557348632812497 Q 1.73370361328125 1.7764868164062497 1.73370361328125 1.8030371093749997 Q 1.73370361328125 1.8323339843749997 1.74102783203125 1.8546118164062497 Q 1.74835205078125 1.8768896484374997 1.761474609375 1.8919958496093747 Q 1.77459716796875 1.9071020507812497 1.79290771484375 1.9147314453124997 Q 1.81121826171875 1.9223608398437497 1.8328857421875 1.9223608398437497 M 2.23876953125 1.6486181640624997 L 2.3406982421875 1.6486181640624997 L 2.3406982421875 1.9122900390624997 L 2.37579345703125 1.9122900390624997 L 2.37579345703125 1.9647802734374997 L 2.28363037109375 1.9647802734374997 L 2.28363037109375 1.9354833984374997 Q 2.26226806640625 1.9519628906249997 2.237091064453125 1.9611181640624997 Q 2.2119140625 1.9702734374999997 2.1832275390625 1.9702734374999997 Q 2.159423828125 1.9702734374999997 2.140045166015625 1.9634069824218747 Q 2.12066650390625 1.9565405273437497 2.107086181640625 1.9420446777343747 Q 2.093505859375 1.9275488281249997 2.086181640625 1.9052709960937497 Q 2.078857421875 1.8829931640624997 2.078857421875 1.8521704101562497 L 2.078857421875 1.7011083984374997 L 2.0361328125 1.7011083984374997 L 2.0361328125 1.6486181640624997 L 2.1380615234375 1.6486181640624997 L 2.1380615234375 1.8454565429687497 Q 2.1380615234375 1.8817724609374997 2.15484619140625 1.9003881835937497 Q 2.171630859375 1.9190039062499997 2.20306396484375 1.9190039062499997 Q 2.2216796875 1.9190039062499997 2.242279052734375 1.9122900390624997 Q 2.26287841796875 1.9055761718749997 2.28118896484375 1.8936743164062497 L 2.28118896484375 1.7011083984374997 L 2.23876953125 1.7011083984374997 L 2.23876953125 1.6486181640624997 M 2.51708984375 1.8140234374999997 Q 2.51708984375 1.8274511718749997 2.519073486328125 1.8385900878906247 Q 2.52105712890625 1.8497290039062497 2.52471923828125 1.8597998046874997 Q 2.5360107421875 1.8903173828124997 2.560882568359375 1.9057287597656247 Q 2.58575439453125 1.9211401367187497 2.6171875 1.9211401367187497 Q 2.64190673828125 1.9211401367187497 2.665252685546875 1.9142736816406247 Q 2.6885986328125 1.9074072265624997 2.7142333984375 1.8927587890624997 L 2.73712158203125 1.9315161132812497 Q 2.70599365234375 1.9528784179687497 2.674560546875 1.9632543945312497 Q 2.64312744140625 1.9736303710937497 2.6092529296875 1.9736303710937497 Q 2.57720947265625 1.9736303710937497 2.549896240234375 1.9629492187499997 Q 2.5225830078125 1.9522680664062497 2.502899169921875 1.9312109374999997 Q 2.48321533203125 1.9101538085937497 2.472076416015625 1.8787207031249997 Q 2.4609375 1.8472875976562497 2.4609375 1.8054785156249997 Q 2.4609375 1.7716040039062497 2.47039794921875 1.7415441894531247 Q 2.4798583984375 1.7114843749999997 2.498626708984375 1.6890539550781247 Q 2.51739501953125 1.6666235351562497 2.545166015625 1.6535009765624997 Q 2.57293701171875 1.6403784179687497 2.60986328125 1.6403784179687497 Q 2.64556884765625 1.6403784179687497 2.669525146484375 1.6512121582031247 Q 2.6934814453125 1.6620458984374997 2.708587646484375 1.6798986816406247 Q 2.72369384765625 1.6977514648437497 2.731475830078125 1.7206396484374997 Q 2.7392578125 1.7435278320312497 2.7423095703125 1.7673315429687497 Q 2.74383544921875 1.7789282226562497 2.744293212890625 1.7908300781249997 Q 2.7447509765625 1.8027319335937497 2.7447509765625 1.8140234374999997 L 2.51708984375 1.8140234374999997 M 2.60589599609375 1.6879858398437497 Q 2.5860595703125 1.6879858398437497 2.571258544921875 1.6936315917968747 Q 2.55645751953125 1.6992773437499997 2.54608154296875 1.7098059082031247 Q 2.53570556640625 1.7203344726562497 2.529449462890625 1.7355932617187497 Q 2.523193359375 1.7508520507812497 2.5201416015625 1.7697729492187497 L 2.68402099609375 1.7697729492187497 Q 2.68280029296875 1.7520727539062497 2.678375244140625 1.7371191406249997 Q 2.6739501953125 1.7221655273437497 2.664794921875 1.7111791992187497 Q 2.6556396484375 1.7001928710937497 2.64129638671875 1.6940893554687497 Q 2.626953125 1.6879858398437497 2.60589599609375 1.6879858398437497" fill="#706b6b" fill-rule="nonzero"></path></g><g clip-path="url(#SvgjsClipPath1002)"><g clip-path="url(#aaf821eba-a117-4b61-88d5-f16c6d2ec0fdfdc1e45a-03a1-44d9-93b6-663d72df1562)"><path d=" M -1.5370873236279676 0.9033868785105862 C -1.7393555706946604 1.0326206469257921 -1.694435206361121 1.011343341159173 -1.7502004130422164 1.0539920040269801 C -1.805965619723312 1.0966334321767435 -2.0301261235903416 1.514568624127123 -2.0563664459349615 1.626533120571938 C -2.0826140029976257 1.738497617016753 -1.8934405955900901 1.4956136628525418 -1.8934405955900901 1.4956136628525418 C -1.9601446959533102 1.646645636733516 -1.860638383979804 1.6718007513715767 -1.6474095390768553 1.2726830610529474 C -1.6781570907627215 1.5312880575261905 -1.5938581561171423 1.6936640692997385 -1.4839555543147913 1.3798437047167234 C -1.4320247481968744 1.4662262381588977 -1.4202466272216767 1.5744793242472777 -1.4123390803998763 1.6083739782821675 C -1.4044387682961197 1.6422758670351012 -1.3746461993920265 1.6947637464423857 -1.3579774090192651 1.5832260983621511 C -1.3396735723686202 1.460713383009573 -1.3412724450562852 1.3002690409537019 -1.3423576527628451 1.2715906186283439 C -1.3195465867709544 1.324787500403914 -1.3033625225071233 1.3732818154510573 -1.302993551886893 1.4071764694859477 C -1.3026245812666626 1.4410783582388813 -1.2779976010457945 1.415518099390372 -1.2694316948820146 1.3798437047167234 C -1.2542026133999562 1.316424166345358 -1.2617628937556573 1.289228861218965 -1.2659662649390664 1.242138081472306 C -1.0536634639457159 1.5635476652831972 -0.8571757565959659 1.8294018492362603 -0.808898483090134 1.951798809100139 C -0.7606139748662588 2.074195768964017 -0.754073789754724 1.9648430057329898 -0.7693824531352633 1.871905817743193 C -0.7846911165158028 1.778954160317309 -0.9347898117691356 1.4015695630020542 -1.029629730604434 1.2595592825216153 C -0.8346902529160429 1.357025404006789 -0.7464194580644539 1.4185928545589581 -0.6753238838486881 1.4607567913178356 C -0.6049590161553389 1.5024938797121323 -0.6129099712854018 1.4309859265678733 -0.6785578028142367 1.3529305535940357 C -0.7442128690611156 1.2748679459021548 -1.00435162575963 1.0456865477127746 -1.143822520206719 0.9749382399631076 L -1.2596648255229745 0.9078868731337882 L -1.4288125333854569 0.9043490960104028 C -1.4288125333854569 0.9043490960104028 -1.4385794027444967 0.9004495829848306 -1.4251228271831529 0.8963257936999025 C -1.4030352329956355 0.8895540976109684 -1.3433271049807052 0.8771103825757474 -1.342357652762845 0.8752076517302454 C -1.3314187590807205 0.8537639474486202 -1.2940803792570135 0.7841659598679068 -1.2778239678127448 0.754959403125356 C -1.2592307424403506 0.7215711793535272 -1.3027909797816681 0.7411483263798693 -1.3368665017676515 0.7970220538316207 C -1.3608134184924086 0.8362921033730046 -1.3695167842990195 0.848019581321896 -1.3695167842990195 0.848019581321896 C -1.3695167842990195 0.848019581321896 -1.3760859082827293 0.8175324794856045 -1.3749934658581253 0.7939545333810779 C -1.3739010234335218 0.7703838219945951 -1.3876614571527024 0.7566089188393271 -1.3986654632972204 0.7935132155804102 C -1.4084902104006103 0.8264818257057023 -1.4163832877863232 0.8402494941429266 -1.4163832877863232 0.8402494941429266 C -1.4163832877863232 0.8402494941429266 -1.4266276485362492 0.8106667320621016 -1.4331388947756092 0.7732053620316511 C -1.4383478917670969 0.7432463946125519 -1.455790796970538 0.710350131667697 -1.458908960447387 0.7573251559256567 C -1.461122784168769 0.7905759200546545 -1.459335808811967 0.826546938168096 -1.459335808811967 0.826546938168096 C -1.4582433663873635 0.8396707166994279 -1.4814306377175281 0.7839995613529012 -1.4906910768135067 0.77849394092162 C -1.5046540826379118 0.770195719325458 -1.5005954058153774 0.8295059378479828 -1.4976219366994032 0.8531924047231654 C -1.534012568459381 0.8134593332269825 -1.5681459681897145 0.7529336820731106 -1.6054264702690717 0.7007207219514882 C -1.636029327594063 0.6578694869784564 -1.6557656384173671 0.6557714187457738 -1.6473516613325054 0.6791829663352944 C -1.628866956730767 0.7306145769081938 -1.600962649236088 0.7856056687586098 -1.600962649236088 0.7856056687586098 Z" fill="#e37f7c" transform="matrix(1,0,0,1,0,0)" fill-rule="nonzero"></path></g><g clip-path="url(#aaf821eba-a117-4b61-88d5-f16c6d2ec0fdfdc1e45a-03a1-44d9-93b6-663d72df1562)"><path d=" M -0.40456456106197325 1.7717411464277069 C -0.4076537856666471 1.763124597237621 -0.4116256458726568 1.750290207428038 -0.41772451318352366 1.734330419423563 L -0.4282872015273742 1.7079743415902429 L -0.4343643646841102 1.6930057099577587 L -0.4415195008293622 1.6772267899043767 C -0.4465403951517133 1.6664036517109517 -0.4515974630642827 1.6547051126342351 -0.4574865235518817 1.6426593070914195 L -0.4766946999579933 1.6050315385459628 L -0.49898486625073524 1.564842679813025 C -0.5068924130725354 1.5510605419397137 -0.5157766468302398 1.5372494651942268 -0.5245378903812006 1.5227872638248043 C -0.5336174615260858 1.508549338714737 -0.5433047489866447 1.4941450150896642 -0.5530209753193782 1.4792849042278364 C -0.5633662860025423 1.4644265961540879 -0.5739301226164804 1.449721639114093 -0.5847090403509403 1.4351748283151804 C -0.5959952004991536 1.4206041061751162 -0.6069847372075843 1.405375024693058 -0.61908842049475 1.3907608942447167 L -0.6370666948334271 1.368470727951975 C -0.643194501016469 1.3610840808293232 -0.6496406347934351 1.3539144752479837 -0.6559565436456143 1.3465784711516382 C -0.6812708220806369 1.3172633936384313 -0.7082852592559363 1.2886500837754666 -0.7358423002845162 1.2605866124838254 C -0.7636792275235544 1.2331142451928518 -0.7923094703360063 1.2064575035703036 -0.8216966993094905 1.1806502128186245 C -0.8507513269731306 1.1550971886881518 -0.8804787834148304 1.1312877316062258 -0.9097504526197748 1.1089541570052215 C -0.9240604869052877 1.0979157904155636 -0.9385758734283796 1.087146232285686 -0.9532889858069649 1.07665114093995 C -0.9679031162553022 1.0666165870132946 -0.981981877568407 1.056524155342287 -0.9961185166258617 1.0473143592726144 C -1.0240083546844534 1.02835216327999 -1.0513555888897648 1.011885945012453 -1.0767422145052243 0.9970475383047562 C -1.0998639560443249 0.9835671461273906 -1.1234310159775245 0.9708654973623284 -1.147403705638365 0.9589639825225457 C -1.1658391073517418 0.9497144364336835 -1.1846012117909799 0.9411309244735073 -1.2036536384283933 0.9332300904409854 C -1.2123747174402844 0.9295335643782874 -1.2212050706897026 0.9261003423362321 -1.2301327064684544 0.9229350866647539 C -1.216838113021657 0.9222654202305134 -1.2035695168607492 0.9211530683792355 -1.1903489919459678 0.9195998816465923 C -1.1575467803356807 0.9155122659518833 -1.1233265639888226 0.9098691858777712 -1.0894174405178452 0.8951610040948617 C -1.0725605474759468 0.8876079584572042 -1.055956869565579 0.8777036294553335 -1.0416900055833374 0.8634584696272227 C -1.0346361554906975 0.8562743946097957 -1.0281249092513374 0.8480629896301585 -1.0232270051357302 0.8382382425267689 C -1.0183291010201228 0.8285075467579478 -1.0149938960019615 0.8169754061962372 -1.0157607761145973 0.8044159356723162 C -1.0163684924302712 0.7919577512010075 -1.022062215530689 0.778631400564451 -1.0315614003221107 0.7697471668067467 C -1.040966533778964 0.76070376925208 -1.052628899265462 0.7560518455499596 -1.0634230985867117 0.7540695328059768 C -1.0853732331313983 0.7502206628067107 -1.1048925024133904 0.7548436476366562 -1.1225379797220556 0.7607616469964301 C -1.125757429251517 0.7619119671653836 -1.1288538885742347 0.7632286858493431 -1.1319503478969526 0.7645309350972149 C -1.1308796096264802 0.7604433194025056 -1.1300837906416696 0.7561386621664845 -1.1299897393071008 0.751407156565883 C -1.1299390962807947 0.7454095753076281 -1.1310894164497485 0.7386234097826065 -1.1346199588550903 0.732372613392821 C -1.1381072430451604 0.7262130118734321 -1.143485129179943 0.7213399367484712 -1.1499575611078048 0.7184747200308095 C -1.1560057853923655 0.7157689354824535 -1.1619816624964892 0.7150309942419926 -1.167414935747333 0.7150816372682987 C -1.1782959516851075 0.7153493218359169 -1.1874044617021675 0.7185470672112471 -1.1955869278096298 0.7223525289022507 C -1.2118578086899858 0.7300864424910013 -1.224590912446956 0.7414015415114001 -1.235442989512556 0.7523549046296122 C -1.2569373368204875 0.7738854255277621 -1.2755522663470127 0.794743117647845 -1.291736330610844 0.8125549934715159 C -1.3043417235810053 0.8264628066023553 -1.316829293314041 0.840476956412836 -1.3291977006412816 0.854595940023635 C -1.3243721437061244 0.8475493246490535 -1.3194597701544295 0.8405461175827197 -1.314706560399697 0.8334560938998613 C -1.3045417815482518 0.8184729928312898 -1.2946808608546434 0.8033017890935812 -1.2846680110821167 0.7882246366904412 L -1.2551503614636852 0.7426748518870971 C -1.2452749713339895 0.7275108828674323 -1.2357468476703928 0.712144341742543 -1.2260812643639654 0.6968646172341786 C -1.2164807935199313 0.6815342496995079 -1.2067211588789353 0.6662979334994059 -1.197344964294257 0.6508373410399481 L -1.1690499820252167 0.6045279108420116 C -1.1596025832455727 0.5890527543216637 -1.1503438701012396 0.5734631940807237 -1.1412758994553225 0.5577626934073164 C -1.132102276975871 0.5421139982787254 -1.1230227058309858 0.5253800954435706 -1.1155492420918094 0.5077780264431677 C -1.108184299123289 0.49008190610819624 -1.101622409857623 0.4711920572960091 -1.1005010285608445 0.4495964239354654 C -1.1000307718880018 0.43883116348639034 -1.101137683748693 0.42725561461641726 -1.1051167786727463 0.415954985032106 C -1.1090452305704936 0.40463265129366344 -1.116352295794664 0.3941929531565565 -1.1250484268832313 0.386343284079106 C -1.1428024249625526 0.37043413910093675 -1.1636384129285042 0.36448720086898817 -1.1829406406691845 0.36063833086972213 C -1.1930041334680173 0.35889476382118224 -1.2015483354776662 0.3578674338589722 -1.2103819262090643 0.3565362457389253 C -1.2191721086322 0.35522676177300944 -1.2279478216192485 0.3538376959086129 -1.2365933096815098 0.3523184051194289 C -1.2539204593962507 0.3494245179019355 -1.2709148120809801 0.3458722713424627 -1.2869614167019803 0.34078626455771804 C -1.3029573782966744 0.33566408418275506 -1.3181141125982956 0.3292034809697013 -1.33062294009591 0.3197838780767607 C -1.3431317675935248 0.31045832651838884 -1.3531446173660515 0.2984125209755728 -1.3594388220640994 0.2836319920122258 C -1.3659355988673718 0.26897445325562225 -1.3691261095246583 0.2522043768302488 -1.3705007059529675 0.23497851316812018 L -1.3711011875505972 0.2251827049369054 L -1.3801445851052638 0.22532739929778006 L -1.4522096115388903 0.2264777194667335 L -1.4363077012787646 0.10240953973475295 C -1.4334282834973588 0.10185970116342935 -1.4305561004339968 0.10118687238536195 -1.4277200909608534 0.10027529791185186 C -1.4206807103043007 0.09810488249873184 -1.4139596572416728 0.09455263593925878 -1.407549697054925 0.09023350926714996 C -1.4011405097951277 0.08562554189931637 -1.3954562982304424 0.08008520355741788 -1.390685569294983 0.07379622987178831 C -1.385852777641769 0.06736456553090928 -1.382126897849247 0.060021326716520135 -1.379428348018934 0.052244004819507 C -1.3782201501056306 0.048322787639803605 -1.3770987688088518 0.04445944820445 -1.376505521929266 0.03972794260384874 C -1.3756518252001055 0.03460576222888556 -1.3757603459707615 0.03230512189097824 -1.375499896121187 0.028817987793898853 L -1.3754854266850995 0.02771107593320779 L -1.375492661403143 0.02751573854602718 L -1.3755143655572744 0.02713229848970912 L -1.3755577738655367 0.026358183659029838 L -1.3756445904820613 0.024809953997670928 L -1.3758326931511986 0.021720729392996962 C -1.3759050403316357 0.019658834750533025 -1.376252306797735 0.017618644262199973 -1.376585103827747 0.015578453773867601 C -1.3770842993727643 0.011476368643070611 -1.378263558413893 0.007497273719017421 -1.3794789910452403 0.003576056539314018 C -1.3820954435182462 -0.004141132110062382 -1.385895632569625 -0.011404691915394977 -1.3907434470393325 -0.017954464358835732 C -1.395523993959726 -0.024227235899954562 -1.4012126746336377 -0.02975254683312409 -1.4076220442353624 -0.034348335445935296 C -1.4140103002679787 -0.038674696836087624 -1.4207385880486505 -0.042198004523385596 -1.4277634992691155 -0.044368419936505615 C -1.4348896965421927 -0.04654607006766914 -1.4415239329882958 -0.04775426798097277 -1.4489612231372537 -0.04787002346967237 C -1.4528752055989136 -0.04813047331924698 -1.4554001221961763 -0.047652981928360545 -1.458366356594107 -0.047443175105092224 C -1.4622803390557668 -0.04708867392094923 -1.4649861236041228 -0.04647372288723198 -1.4681983384155406 -0.04580812882720844 C -1.4793994854573511 -0.04299215201811343 -1.489833427436195 -0.03771834051104268 -1.498743317996182 -0.030369240521882102 C -1.5147103407187013 -0.016854787216188532 -1.521366281318936 -0.0008443561854070344 -1.5239418409425047 0.010152415241067733 C -1.5245640266942662 0.012945016405948508 -1.5251572735738521 0.015419289976905573 -1.5253670803971202 0.01764034841633154 C -1.5256927756162175 0.019485450073395624 -1.5258789937492532 0.021352468238377484 -1.5259241536864878 0.023225550746093435 C -1.5259835619372386 0.024783369460819674 -1.5260414397095197 0.026341246164718224 -1.5260977869195365 0.02789917860232098 L -1.5258011634797444 0.023232785464136943 C -1.5257722246075693 0.021706259956909252 -1.52548283588582 0.01984693741966978 -1.5250921611114583 0.017676522006549775 C -1.524810007107753 0.015484402439298536 -1.5242456991003417 0.013017363586385666 -1.5233485940629188 0.01031881375607327 C -1.5215977922963353 0.004957887685666698 -1.5189571202103727 -0.0015099502454305747 -1.5141026244030278 -0.0076594605826037845 C -1.5088848131191315 -0.014523854369013205 -1.5021920079645157 -0.020128800540241024 -1.4945182426586419 -0.024060566387746857 C -1.4858178370490207 -0.02842061132505688 -1.4761484294996232 -0.030487468977902502 -1.466425832494826 -0.03006538236404575 C -1.4640745491306126 -0.029891749130996008 -1.4611010800146382 -0.029638533999465252 -1.459292400503705 -0.029240624507060175 C -1.4565359729290426 -0.028676316499648868 -1.4532297067830566 -0.028242233417024865 -1.4513631495277735 -0.02735236309764564 C -1.4471236047541458 -0.026064583285861337 -1.4422257006385384 -0.023532431970554477 -1.4381453196618728 -0.020985811219160596 C -1.429896508175525 -0.015582883410439945 -1.4231175293419582 -0.008217238275178451 -1.4184162435566123 0.00045065834442077624 C -1.416227066846513 0.004702241153091903 -1.4144954980282551 0.00917424801705155 -1.4132506548733867 0.013791478417064608 C -1.4128382759448943 0.016142761781278214 -1.4122305596292204 0.018421697965053982 -1.4120135180879085 0.020794685483398467 C -1.4118471195729028 0.02196670980648352 -1.4116373127496344 0.023138734129568225 -1.4116734863398532 0.02433246260678415 L -1.411622843313547 0.026119437963586456 L -1.4115866697233284 0.027009308282965327 L -1.4115649655691973 0.027457860801677045 L -1.4115504961331096 0.02768213706103273 L -1.4115504961331096 0.027711075933207457 C -1.4116951904939845 0.030633902022875886 -1.4116951904939845 0.03433084294322325 -1.4120930999863894 0.0355028672663083 C -1.4122160901931329 0.03726090375093519 -1.4128889189712004 0.03964836070536738 -1.4132940631816493 0.04199964406958065 C -1.414547206593118 0.0466092759876115 -1.4162835158977813 0.051073724912032145 -1.418474121300962 0.0553187599880936 C -1.42319132588342 0.06395313293160662 -1.429962204388259 0.07129301370345802 -1.438188727970135 0.07669011708928132 C -1.4466461133632595 0.08209445146795033 -1.4560801856922876 0.08537177874176105 -1.4667730989609251 0.08575521879807912 C -1.471215215839777 0.08586373956873486 -1.476402508677134 0.0857190452078602 -1.4810906059694733 0.08456149032086319 C -1.4857348258661487 0.08353462676288329 -1.4902366375823974 0.08194575203950136 -1.4944965385045108 0.0798299847202616 C -1.5021694172691737 0.07590662048069365 -1.5088643531604935 0.07031184946073142 -1.5140881549669403 0.06345781778729324 C -1.518949885492329 0.05730830745012003 -1.5215905575782918 0.05084770423706626 -1.523341359344875 0.04548677816666004 C -1.5241585197696665 0.043095728319480095 -1.5247447970755834 0.04063191005453168 -1.5250921611114583 0.03812906991618355 C -1.5254664493274248 0.03629720882682734 -1.525703442189797 0.03443995864007422 -1.5258011634797444 0.03257280645859602 L -1.5260977869195373 0.02789917860234456 L -1.5259241536864878 0.03258004117663987 C -1.5258790280762535 0.03445552273793814 -1.5256928110444983 0.03632494826451918 -1.5253670803971202 0.03817247822444597 C -1.5251572735738521 0.04038630194582808 -1.5245712614123095 0.042860575516784793 -1.5239490756605485 0.04565317668166592 C -1.521366281318936 0.056649948108140336 -1.5147320448728325 0.0726676138569657 -1.4987650221503133 0.086211006034834 C -1.4946991106097354 0.08938704725603283 -1.4902786978850144 0.0927294869922379 -1.485105874483745 0.09525440358950057 C -1.4807288700672867 0.09771420772436992 -1.4759322520042915 0.09950118308117187 -1.4704628051632291 0.1010132391523122 L -1.45438002695201 0.2265138930569519 L -1.5363638518235945 0.2278233770228678 L -1.5363638518235945 0.23067385593209871 L -1.5370656194738368 0.23990535615590242 C -1.5379193162029974 0.24623573444416885 -1.5387657782141142 0.255669806773197 -1.5420141666157503 0.2671440695905577 C -1.5451757384008618 0.27851704635530633 -1.5506090116517055 0.291865101145994 -1.5603686462927016 0.30428711202708386 C -1.5700414643171727 0.31677423537056737 -1.5845615434309455 0.32766972074442957 -1.6029449619800713 0.33549768566774885 C -1.6212632680668038 0.3435065185421615 -1.6429963610701783 0.3489470265110489 -1.6667190015355793 0.353389143389901 C -1.6785911738453456 0.3556391407015022 -1.6909625417001295 0.35770827006200984 -1.7037462884834058 0.3599293285014358 L -1.7134118717898335 0.3616439566778006 L -1.7234464257164914 0.36361903470373985 C -1.7305817978387454 0.36519379026812504 -1.7376306544950992 0.3671377195618436 -1.7445645676861488 0.36944298272894494 C -1.7584986346383789 0.3741744883295466 -1.7725484570793086 0.3808883066741309 -1.7854913676595476 0.39090115644665774 C -1.798217236698474 0.4010008228357092 -1.8098144897225783 0.41514469661120773 -1.8155299169771277 0.4322548047846368 C -1.821462385772989 0.4492925657776283 -1.8211512928971083 0.4676759843267543 -1.8172879534617548 0.4837804666921045 C -1.8134897264887948 0.5000585822905041 -1.8063418250615864 0.5144556711975333 -1.7981955325443426 0.5275649802927778 C -1.7941247229968624 0.534023928611748 -1.7897674935323633 0.5402978562451178 -1.7851368664754044 0.5463680124884404 L -1.7714849535268797 0.5635504678423066 L -1.745150579847691 0.5969097527419603 L -1.7198724750028873 0.6299145364574711 L -1.6956072306842058 0.6625503495527516 C -1.664020451705267 0.7056330955031828 -1.6358050513347075 0.7467914064539809 -1.61257437169628 0.7827117815411163 C -1.6020403139523962 0.7990697550848517 -1.5916844088765598 0.8155417699120434 -1.5815084924165204 0.8321249057797644 C -1.5737050408143154 0.8449402011539138 -1.566078921013239 0.8578626394506139 -1.5586323139622036 0.8708885250581394 C -1.5477006549981245 0.8900749973101171 -1.541500501634645 0.9022076194694576 -1.5402054871048168 0.9047614749388956 C -1.5423271993340177 0.9057203554481407 -1.5444374736037165 0.9067043461933257 -1.5465358653930856 0.9077132399007397 C -1.5526492021400378 0.9106360659904068 -1.5616853649766607 0.9148322024557721 -1.5728847085083597 0.920692324071196 C -1.5841998075287584 0.9263715777355265 -1.597714260834452 0.9336569388055659 -1.613145914421735 0.9421649672249962 C -1.6284256389300995 0.9509045066218259 -1.6458757788515839 0.9605122121839035 -1.66425919740071 0.9719937097193082 L -1.693082314086943 0.989733238362542 C -1.7030734597053385 0.9958393403914528 -1.7129922581432968 1.0027340266871305 -1.72342472156236 1.0095057227760647 C -1.7442824136824429 1.0230635843900204 -1.7656610055016744 1.0382564922818602 -1.787697956662886 1.0541149942337236 C -1.7988538918863224 1.061863377258562 -1.8097566119782282 1.070320762651686 -1.8208329653031838 1.07883602578916 L -1.8543803528719747 1.104729081667681 C -1.8763738957249236 1.1228882239574514 -1.898873868840934 1.141177591172009 -1.9206069618443085 1.1603857675781204 L -1.9527652835487024 1.189606793756759 L -1.968696132681003 1.204213689487056 L -1.9839541530352365 1.2193776585067209 C -2.004182424685514 1.2395697565667803 -2.0243528185914426 1.2591396688750787 -2.0422298068775073 1.2797224417094997 C -2.060396183885321 1.3000085911041275 -2.078251468017255 1.3192963494087202 -2.0934154370369193 1.3391990587470302 L -2.1159154101529296 1.3677327867115143 L -2.1264925679328677 1.3813919343780823 L -2.135998987442333 1.3951017250709565 C -2.1472769113317494 1.411354499863612 -2.158380428843926 1.427727605943144 -2.1693076293156643 1.4442182258698368 C -2.1788285182612337 1.4590783367316895 -2.1859185419440923 1.4728532398869576 -2.1922489202323585 1.4837993682871256 C -2.198754240692875 1.4953288487662544 -2.2051020897447473 1.5069464737217513 -2.211290698123463 1.5186490051037853 C -2.217479306502179 1.5303515364858202 -2.2019289729748737 1.5075147740344832 -2.1862875125643226 1.4877856979292226 L -2.173373540856259 1.4714569393045172 C -2.1685118103308705 1.4656402259973556 -2.1640262851437555 1.4588251216001589 -2.158129989938113 1.4523283447968867 C -2.145187399443252 1.4376859499831025 -2.132402910984843 1.4229045634972342 -2.119778749588261 1.4079867579068188 L -2.1091220099098646 1.3955430428716245 L -2.097365593088798 1.383186144452928 L -2.0729484196911985 1.3570688123150516 C -2.0567064776830173 1.338721567356144 -2.03787450661518 1.3209024568144292 -2.0191221174458236 1.3018679136413671 C -2.00066635171626 1.2825367470285118 -1.9799895275472705 1.264131624325255 -1.959768490615036 1.2446774675056562 L -1.9444598272344968 1.2301284495197087 L -1.9285868558465462 1.2159701063081227 L -1.89675409645412 1.1874436130616828 C -1.8863505719072318 1.177676743702643 -1.8751801672477078 1.168763571072764 -1.8644438456708077 1.1594452542324354 L -1.832249350376195 1.1317869271512437 C -1.8103281547036834 1.1141776234327971 -1.789376411249032 1.096054654733245 -1.7683161470237247 1.079458211540921 C -1.7515388358803077 1.0661390956224084 -1.7353403021803888 1.05302255180912 -1.7195107391007005 1.0406728881084675 C -1.742386917554985 1.0605321891385149 -1.7670645408021588 1.081577983927735 -1.7916625821508518 1.1053802062916174 L -1.8125853867333281 1.1250152310623092 C -1.8195570870401712 1.131900400164103 -1.8265265324647726 1.1387878521131234 -1.833493721886068 1.1456775858014878 C -1.8476158915010843 1.1595971833113539 -1.8619261637915885 1.1739508639101204 -1.8758674654618623 1.1891148329297851 C -1.8898883490306173 1.2042064547690128 -1.9045024794789582 1.2192401988638903 -1.9184076075590135 1.2352578646127155 C -1.9324646647179873 1.25113807071871 -1.946977509113716 1.266982103234486 -1.960528136009628 1.283867935148559 C -1.9743319780370712 1.3005439602393638 -1.9883673310419137 1.3172489242023437 -2.001729855268689 1.3346122475073035 L -2.02208111712571 1.3604763645136497 L -2.041882540411408 1.3868469117830573 C -2.0681156280379844 1.422159570554519 -2.092800486003202 1.458579141186672 -2.1166605861114345 1.494694853660988 C -2.140397696012923 1.5308973827518289 -2.162152493170429 1.567555699079425 -2.18250375502745 1.6033892575500355 C -2.2032095180686144 1.6390202439154216 -2.221122679944898 1.6746439955627639 -2.23798680770484 1.7084011899548228 C -2.2545398425889016 1.7423392522979753 -2.2694361270409478 1.7747724932880313 -2.2820317711550877 1.805201717379973 C -2.2885502521124916 1.8203150433733315 -2.2943235571113907 1.8350087557201538 -2.299894290005065 1.8489283532362966 C -2.3051249911506844 1.8629926451133136 -2.31029057983391 1.8762394138513891 -2.314703757840587 1.8888639968377041 C -2.3239135539102596 1.9139467642953267 -2.3308588832322434 1.9362079917158939 -2.3364874938702678 1.9545335325206703 C -2.3421667475345984 1.9728446038893588 -2.345784106556465 1.987494907927918 -2.348366900898078 1.99742094108392 C -2.349579576926162 2.00252207380377 -2.350795009734989 2.0076225507693826 -2.3520131987920565 2.0127223697461534 L -2.346500343642795 1.998014187963506 C -2.342803402722447 1.9884571254277348 -2.337087975467898 1.9745737015018108 -2.329737501935465 1.956971632501408 C -2.3207766259064444 1.9358713782218628 -2.3115031078766752 1.9149052684083965 -2.3019200110573044 1.8940802285472218 C -2.2908581271684425 1.8699669133074726 -2.277821165253635 1.8430392927486978 -2.263214269523338 1.8138906137504969 C -2.248679720973478 1.7847057611620771 -2.2318228279315795 1.7536615860364178 -2.214097768724433 1.7208449049900438 C -2.204851799064542 1.7046391365720819 -2.195750523765526 1.687782243530183 -2.1856508573764746 1.6709976976687222 L -2.1707111646161654 1.6453650916397757 L -2.1550986430777894 1.6194720357612544 C -2.144774700429382 1.6019567833773762 -2.1334161931007207 1.584665807252854 -2.1223470744938093 1.5669262786096203 L -2.087584254293671 1.5138813259129682 C -2.0637313889034825 1.4785035546791132 -2.0390103573480465 1.4428870377498146 -2.012893025210169 1.4082978507827262 L -1.9936342057777519 1.3821226409004996 L -1.97382554777401 1.3564466265632902 C -1.9608175247313777 1.3392062934650744 -1.9471439076287222 1.3226098502727504 -1.933701801503466 1.306042345952601 C -1.906615017147729 1.2730809705453527 -1.8797380396152599 1.2407779544800839 -1.8525282650527795 1.210551302493367 C -1.8392597921605727 1.1951268836241273 -1.8253329599263863 1.1807732030253608 -1.812194711958967 1.1662458891935445 L -1.809206773406905 1.1629975007919082 L -1.8169985647400058 1.172749900714861 L -1.8340507951690848 1.1941284925340923 L -1.8507268202598899 1.2163029033381347 L -1.867562009147657 1.2387884070180575 L -1.8837026651032258 1.2621203727090968 C -1.8946849670936128 1.2776316081948607 -1.9050957263585448 1.2936926822519488 -1.915557128649783 1.3098261034894736 C -1.926242807200377 1.3258075956480804 -1.936082023739854 1.342418508276492 -1.946225098437168 1.3588413182357661 C -1.9562017746194762 1.3753581795296088 -1.9653609276628425 1.3923525322143382 -1.9749324596347013 1.4090213225870993 C -1.98401926549763 1.4259505628094353 -1.9931711838229527 1.442771282261115 -2.0018383760393452 1.4596643488932317 C -2.0103898127670377 1.476615293269699 -2.018970188366905 1.4933853696950723 -2.0265738770308688 1.5103797223798017 L -2.038207303645192 1.5355493064539494 L -2.049131727891229 1.5605959003213536 C -2.0564822014236617 1.5771055268971526 -2.0630874989975903 1.5936079187549081 -2.069533632774556 1.6097558094285205 C -2.075704847265861 1.6260122208727892 -2.0818181840128154 1.6418851922607396 -2.087367212752359 1.6574760096449848 C -2.098740189517107 1.6885635930789062 -2.108116384101786 1.7184357438814808 -2.116320554363379 1.7461013056807166 C -2.123788954376966 1.7712647264506653 -2.130503360688074 1.7966458095957822 -2.136454774679089 1.8222105395007895 C -2.1411654270569582 1.8418739199611411 -2.1453078204769818 1.8616691080865317 -2.1488767855601787 1.8815714010496198 C -2.15203835734529 1.8980737929073759 -2.1536806383412173 1.9112048061567517 -2.1549539487169143 1.9200962746324999 L -2.1566106991489296 1.9337843611712433 L -2.1530439831533688 1.9204869494068615 C -2.1506348220448057 1.9118414613446002 -2.1468293603538022 1.8992458172304607 -2.1419459256742823 1.8832643250718544 C -2.137055256276719 1.8672828329132476 -2.1307031738343207 1.8480095440447424 -2.1232514142492755 1.8260087664737497 C -2.1158285935364054 1.8039935194666694 -2.1066911446471708 1.7794244169901519 -2.096772346209212 1.7526776643824702 C -2.0915922880898994 1.7393657831820009 -2.0863543522262367 1.7254678898199893 -2.080436352866463 1.7112661383001413 C -2.074552571754482 1.6965379045321192 -2.0685306092466513 1.68186524938689 -2.0623712619112595 1.6672501137220657 C -2.0496309234362466 1.6371826255323132 -2.0354002330442236 1.605841826966861 -2.02025796817869 1.5736545663902923 C -2.005368918444687 1.5413443156069797 -1.988099646474296 1.5088821357447486 -1.9709678341467356 1.475739892386407 C -1.9622717030581684 1.4592375005286518 -1.9530980805787146 1.4428219252874208 -1.9439895705616546 1.4262905945574906 C -1.9344108038717516 1.4100269483951782 -1.925237181392298 1.3934377399208984 -1.91526050520999 1.3773260228375044 C -1.9054068192344253 1.361149193291717 -1.8959944510595284 1.3446974444602677 -1.8856560389750336 1.3289040549707982 C -1.8755636073040258 1.3129587364024102 -1.8655145839412806 1.2970712955783719 -1.8549084872891675 1.281726458607614 C -1.8446513710026515 1.2663549346414062 -1.8341914661055116 1.251119698479259 -1.82353151513349 1.2360247447253419 L -1.807882820004902 1.2137056395604344 L -1.7918362153839016 1.192153414508153 L -1.7760355911763885 1.1709629253580585 L -1.7600685684538693 1.1505176121664689 L -1.7559447791689413 1.1452073291223686 C -1.7593089230592773 1.1505031427303813 -1.762651362795482 1.155820660492525 -1.7660372108399494 1.1611164741005378 L -1.7830677371148973 1.188666280411074 L -1.7992156277885099 1.2164258935448782 C -1.810024296545847 1.2347441996316104 -1.8197766964687996 1.2532578431055237 -1.8293192895684836 1.2711058925194139 C -1.8388546479501242 1.2889539419333036 -1.8473771458056416 1.306570480369794 -1.8556174896574538 1.3231741582801617 C -1.863125444262106 1.3388986109742285 -1.8703971535684278 1.3547347779079968 -1.877430164559314 1.3706773169553244 C -1.8834548062142646 1.3841215810850596 -1.889205186327594 1.3976870751107993 -1.8946777323755666 1.4113653712332632 C -1.8997275655700947 1.4235052281106535 -1.9037283646482794 1.434284957995816 -1.9070273960762214 1.443147487599389 C -1.9104204788387324 1.4519593741766563 -1.9126921803044645 1.4590855714497333 -1.914392339044742 1.4638532506405535 L -1.9168159695893925 1.471247132481249 C -1.9168159695893925 1.471247132481249 -1.9108039188950503 1.46221820436267 -1.9006319053255616 1.446330763538632 L -1.882443824163616 1.4176161676230548 C -1.8755419031498948 1.4064819365537495 -1.8674751925311321 1.3940743951087469 -1.8591914403710579 1.3802994919534788 C -1.8507340549779334 1.366604170696692 -1.8413578603932552 1.351903223631826 -1.831873145037921 1.3361460077325753 L -1.8015813805888101 1.286877577854752 L -1.7691915479070166 1.2343101165489867 L -1.75255169640643 1.2073101488097744 L -1.735492231259307 1.180310181070562 C -1.7290808333823011 1.1698336294255807 -1.722532854929372 1.1594412761461435 -1.7158499717705613 1.1491357810201 C -1.718382123085878 1.1544532987822596 -1.7207623453222665 1.1598721025970158 -1.7232510883293104 1.1652836716937283 C -1.7288290559410289 1.1776116312402496 -1.7345951262218842 1.1900625809935144 -1.7399632870103343 1.202788450032441 C -1.7500484839632984 1.228493403241825 -1.7606039375891052 1.2545383881992649 -1.7690179146739666 1.2813140796791211 C -1.778227710743639 1.3078293213094034 -1.78536114273476 1.334988452845578 -1.7925669219063183 1.361633919400647 C -1.7960829948755725 1.3749747394732914 -1.7987019628074041 1.3884385497526788 -1.801653727769247 1.401634675464448 L -1.8059366808511372 1.4213275779794898 C -1.8073908591779277 1.4278388242188496 -1.8082011475988256 1.4344368870747344 -1.8093514677677793 1.4408974902877882 L -1.815537151695171 1.4790895668406558 C -1.8173530659241481 1.491591159620227 -1.818474447220927 1.5039335886028353 -1.8197766964687991 1.515885342811083 C -1.8208402000212276 1.5278805053275923 -1.8225910017878113 1.5394343500434342 -1.8229744418441292 1.5507711532179642 L -1.824443089607007 1.583472078775638 C -1.8259117373698848 1.6043370056137647 -1.8249567545881118 1.6237477541251009 -1.8247324783287562 1.6407565762459173 C -1.824522671505488 1.6492718393833918 -1.8245299062235318 1.6572300292314979 -1.82413923144917 1.6645587986098 L -1.822431837990849 1.684613437027028 C -1.820326535040123 1.7088280383194032 -1.8187059581983267 1.7226680539370647 -1.8187059581983267 1.7226680539370647 C -1.8187059581983267 1.7226680539370647 -1.81720113684523 1.7088208036013595 -1.8152911712816846 1.6845844981548534 L -1.8137501763383694 1.6645153903015375 L -1.8110009834817509 1.6411038427120168 C -1.8089246194031994 1.6244205829031682 -1.8072968078433593 1.6057188367601176 -1.8038964903628047 1.5853096971587464 L -1.7990998722998097 1.55353481551067 C -1.7975516426384508 1.5425525135202833 -1.7950556649133629 1.5313169963983655 -1.792993770270899 1.5197269780923048 C -1.790685895214948 1.5081658986584192 -1.7889423281664083 1.4962069097321282 -1.7862799519263146 1.4841321653171375 L -1.7780757816647212 1.447227868576055 C -1.775507456759196 1.43466116333409 -1.7722084253312536 1.4220438150658192 -1.7688659855950488 1.4092745377186304 C -1.7654511986784067 1.3965341992436162 -1.76243432125417 1.3835261762009838 -1.7587880233601285 1.3705832656207448 C -1.7509745278728963 1.344827669385055 -1.7439496166524318 1.3184137138073848 -1.7347759941729781 1.2926653522897387 C -1.7267816307346529 1.2665190812796867 -1.716551739420814 1.2411903334085768 -1.7074938724300603 1.2158615855374673 L -1.692373311718658 1.1788849416159466 C -1.6898411604033514 1.1727933090231235 -1.6874971117571815 1.1666655028400812 -1.6848709091073064 1.1607185646081328 L -1.6768620762328939 1.1431020261716425 C -1.671515619598575 1.131475834275363 -1.6665598377386177 1.1198568770971273 -1.6611555033599492 1.1087805237721717 L -1.6450220821224244 1.0764196299625537 C -1.6400807696985544 1.0657050125397847 -1.634126596748562 1.05596708205292 -1.6289393039112052 1.0461857432577926 C -1.6235856125588426 1.0364984557972337 -1.6187889944958478 1.0268690460810248 -1.6134859461697912 1.018071628939845 C -1.6083710092525747 1.0096687600730245 -1.6032584749581846 1.00126442893341 -1.5981483439135065 0.9928586365515714 L -1.5911523715687865 0.9810226378378876 C -1.5888010882045736 0.9772461150190587 -1.5862978757614417 0.9737372767678482 -1.5839900007054908 0.9702429079527252 C -1.5793380770033703 0.9632758744766102 -1.574874255970387 0.9568225059816001 -1.570931334636552 0.950694699798558 C -1.5669739438666301 0.944566893615516 -1.5633348806906322 0.9389310482594478 -1.5595945314620223 0.9342067773768902 C -1.552192520808637 0.9243314821294146 -1.5449114394956536 0.9143661200938905 -1.537752917687985 0.9043129224201757 L -1.5374924678384172 0.9041971669314848 C -1.5388164212404205 0.9069101861978847 -1.543627508739503 0.9170460261771548 -1.5501749285690816 0.9335918263431727 C -1.553792287590948 0.9433948692924312 -1.5585889056539433 0.9552453374480662 -1.5629225017621393 0.969157700246165 C -1.5651507949196093 0.9760957948501053 -1.5677697628514404 0.9834462683825381 -1.5700776379073915 0.9912887027419449 L -1.5771676615902501 1.0160748467597749 C -1.5818412894465015 1.0334164659106033 -1.586775367152328 1.0522773758506156 -1.591080024388349 1.0724115961663254 C -1.5952833955717578 1.092567520636166 -1.59972551245061 1.1138592958388727 -1.6030173091605087 1.136084349669221 C -1.6068589444417312 1.158244291037176 -1.6096660150426998 1.18129410272451 -1.6122126357940936 1.2047562933403366 C -1.6136724385650618 1.2165458300876697 -1.614765408796769 1.2283778963487983 -1.6154899630679052 1.240235350626806 L -1.618029349101255 1.276061674379371 C -1.6192013734243398 1.3000013563860842 -1.6195631093265264 1.3239772119830162 -1.6200333659993693 1.3475551580875424 C -1.6198524980482758 1.3711403389101124 -1.61908561793564 1.3943493143944088 -1.618376615567354 1.4167769403299815 C -1.6171828870901384 1.4391973315475108 -1.615178870192024 1.4608219037802295 -1.6135004156058779 1.4813033905620383 L -1.6121475233316995 1.4964456554275718 L -1.6102013841779355 1.5111248983383065 L -1.6062729322801883 1.5389134503442854 C -1.603704607374663 1.5566746831416505 -1.601642712732199 1.5730323806385313 -1.598459436792956 1.5871834891320735 C -1.5956957745002502 1.6014214142421404 -1.5928959386173254 1.6137855473788805 -1.590689349613987 1.6239864998205444 C -1.5862038244268721 1.6443667005497407 -1.5832231205928542 1.655963953573845 -1.5832231205928542 1.655963953573845 C -1.5832231205928542 1.655963953573845 -1.5831001303861107 1.6439904952114666 -1.583599325931128 1.6231255683733399 C -1.5838814799348335 1.6127003396723203 -1.584120225630277 1.6000178789416561 -1.584821993280519 1.5855339734181024 C -1.585245400661572 1.577851104429512 -1.5854239475947498 1.5701566967281138 -1.5853573624157555 1.5624624575766375 C -1.5853501276977116 1.554352338649612 -1.585610577547286 1.545866014384313 -1.5857408024720732 1.5370107194987837 L -1.5862327632990472 1.5094175048799854 L -1.5866017339192775 1.4949191299203441 L -1.586478743712534 1.4798998552615537 L -1.586478743712534 1.4161692240143084 C -1.585827619088598 1.3940743951087469 -1.5855092914946738 1.3712777985529438 -1.5850824431300934 1.3481267008129976 C -1.5838163674724401 1.3249973072271826 -1.5833605802356852 1.3014700041489622 -1.5820076879615068 1.2780005788150914 L -1.5798155683942556 1.242847083840592 L -1.5787954731500893 1.2253390661747576 L -1.5773557642593863 1.2079829775878417 C -1.57633566901522 1.1964580717441744 -1.575409625105622 1.1850055130809451 -1.574577632530593 1.1736831793425027 C -1.5737818135457822 1.1623536108860164 -1.572240818602467 1.15125555340693 -1.571285835820694 1.1402587819804553 C -1.5693179925127987 1.1182652391275063 -1.56662667740053 1.0971109235676306 -1.5642970981904478 1.0769839379699646 C -1.5633348806906313 1.0668770368628695 -1.5616781302586165 1.0571825146842668 -1.5605205753716191 1.0477050340469765 C -1.559254499713966 1.0382564922818611 -1.5583212210863242 1.0290466962121885 -1.556888746913665 1.0203216262514463 C -1.5541178499029151 1.002842547457787 -1.5519691386439265 0.9866874220661307 -1.5495238039451447 0.9724784358282387 L -1.5432730075553591 0.9355524349330245 C -1.5412111129128951 0.9253876560815795 -1.5399812108454605 0.9172485982823795 -1.538773012932157 0.9118080903134922 L -1.537232017988842 0.9040741767247413 L -1.5365953628009934 0.903784788002992 L -1.5275881388365455 0.9048916998636832 C -1.519572071244089 0.9058539173634997 -1.507837358577154 0.907503433077471 -1.4928687269446699 0.909152948791442 C -1.4805986451424984 0.9105709535280139 -1.4660640965926381 0.9122855817043787 -1.4497498074040198 0.9139640362905247 L -1.4485054359004979 0.9314431150841841 C -1.448744181595941 0.9462598176377497 -1.4503358195655622 0.967450306787844 -1.4551830806548636 0.9923305021402425 C -1.456311696669686 0.9985595943758968 -1.457910569357351 1.0049840239987322 -1.4593502782480539 1.011632729880923 C -1.4611517230409434 1.0182307927368077 -1.4627144221383899 1.0250965401603103 -1.4648558986793347 1.0320274000462066 C -1.466990140502236 1.0389510252140592 -1.468972453246219 1.0461061613593112 -1.4715118392795694 1.053283001658695 L -1.475179841327742 1.0641857217506008 L -1.4793398042028887 1.0751607890229442 L -1.4836806350291285 1.0866422865583485 L -1.4858727545963795 1.0924083568392042 L -1.487949118674931 1.0991077057477008 C -1.4904378616819751 1.107970235351274 -1.4920729079598587 1.1172234397292091 -1.4920801426779027 1.1272579936558667 C -1.4920729079598587 1.1371912615299125 -1.490307636757188 1.148101216339862 -1.4841725958561023 1.1585698533491442 C -1.4808366542889853 1.1641137402594905 -1.4763093247846484 1.1688461834913713 -1.470918592399983 1.1724243384028932 C -1.4649423589634112 1.176310889246865 -1.4579918456951035 1.178434657189959 -1.4508639539827548 1.1785521445859355 C -1.4436509400931528 1.1787257778189848 -1.436589855282469 1.1767289956389146 -1.4306646212046519 1.1735312502635846 C -1.4247466218448779 1.1702973312980358 -1.4199717079360141 1.165970969907883 -1.4160287866021795 1.1613407503598938 C -1.4082659341412538 1.1519934946473906 -1.40397574634132 1.1414742146118027 -1.4016534018492817 1.1313890176588384 C -1.4011831451764392 1.1288713357796194 -1.4006043677329403 1.1263174803101816 -1.4002860401390163 1.1238287373031373 C -1.3999894166992233 1.1211591263449998 -1.3996783238233426 1.1192491607814543 -1.3994323434098557 1.115971833507643 L -1.399041668635494 1.1035064143182907 C -1.3988680354024443 1.0994911458040186 -1.3988535659663568 1.095070733079298 -1.3990778422257129 1.090672024508708 C -1.3992514754587622 1.0863167242463807 -1.399345526793331 1.0819252503938346 -1.3996059766429054 1.077714644492382 C -1.4006174469975807 1.0633959651139233 -1.402351162836256 1.0491374803961255 -1.4048005041983056 1.034993634444136 C -1.3901284960056146 1.074516899117052 -1.3729894489600107 1.1194662023227662 -1.3567692111059608 1.164697659532186 C -1.3511550699040238 1.1803825282509997 -1.3454830509577371 1.1960529275337257 -1.3401800026316806 1.211578632455577 L -1.3321639350392243 1.2346212094248679 L -1.3245530116572168 1.257200764439359 L -1.297263655196255 1.3386130465854884 C -1.2937281665511677 1.3495599759620145 -1.290052628392368 1.3604611783752536 -1.286237944897603 1.371313972143171 L -1.2775707526812135 1.3965920769879663 C -1.2726656138475625 1.410620195274765 -1.2694389296000574 1.4185856198409152 -1.2694389296000574 1.4185856198409152 C -1.2694389296000574 1.4185856198409152 -1.2695691545248446 1.4100341831132224 -1.270538606742705 1.395159602815307 C -1.2711101494681596 1.387736782102437 -1.2714357117801278 1.3786355068034206 -1.2727451957460434 1.3683766766174066 C -1.27397741273788 1.3568261839645355 -1.2753666069772214 1.3452929776233393 -1.2769123933392372 1.3337802549322482 C -1.2789164102373478 1.321191845536179 -1.2811591728309053 1.3075471673056982 -1.2838432532251303 1.293157313116713 C -1.2868963042395856 1.2788687449803398 -1.2898118956112101 1.2636903065245875 -1.293827164125482 1.2482369487831733 C -1.2976687994067044 1.232740182733497 -1.3018866400262008 1.2167731600109777 -1.306893064912464 1.2007627289801959 C -1.3115377538965407 1.184629307742671 -1.3172748853052212 1.1685754684036271 -1.3228311487628084 1.152470986038277 L -1.3317949644189937 1.1285747123398262 C -1.3348118418432304 1.1206454613638948 -1.3381832204516102 1.1128970783390564 -1.3413230880825904 1.1051269911600872 C -1.344426782123352 1.09734243454503 -1.3478560384760814 1.0897749194712851 -1.3512129476483736 1.0822869862960216 C -1.3545553873845781 1.0747918184027139 -1.3578254799403455 1.0673762324078875 -1.3613560223456873 1.0602355656987226 C -1.3749355881137748 1.0314052142944456 -1.3890432882990544 1.0052878821565687 -1.4016027588229751 0.9831785838149204 C -1.4117990045673448 0.9653872758281413 -1.4224397963243713 0.9478544545880436 -1.433515100113879 0.9305966530730728 C -1.4352369630082908 0.9279198073968861 -1.4367779579516058 0.9255612893146291 -1.4381959626881775 0.9234053433375967 C -1.439729722913449 0.9199616175487797 -1.4410826151876273 0.9170821997673739 -1.4422184659204933 0.9147164469670731 C -1.4410753804695835 0.9148322024557729 -1.4400046421991108 0.9149479579444726 -1.4388470873121135 0.9150564787151285 C -1.417953221601812 0.9171834858199861 -1.3943535713431543 0.919411778977456 -1.3685039237728955 0.921010651665121 C -1.366810999750662 0.9211264071538208 -1.36502402439386 0.9212204584883891 -1.3633093962174954 0.9213289792590452 C -1.3595545775527977 0.9252936047470111 -1.3550039399032894 0.9300685186558749 -1.35000474973507 0.9361239776584795 L -1.3379227706020356 0.9510781398548761 L -1.3310425537424453 0.9594704127856065 L -1.324140632728724 0.9689406587048534 L -1.3090634803255838 0.9896681259001489 L -1.293197743655677 1.0132460720046752 C -1.287663184352221 1.0214357728301815 -1.2819115835074533 1.0299510359676551 -1.2765578921550906 1.0392259444997212 L -1.2592813854666558 1.067318354663537 L -1.2420482870864833 1.0976101191126482 L -1.233135114456604 1.1132443448051554 L -1.2246053818830425 1.1295152256855112 C -1.2189767712450181 1.1405047623939422 -1.212827260907845 1.151436421358023 -1.207126303089383 1.1627804592505964 L -1.1902549406113974 1.1973985850898599 C -1.1842935329433613 1.208894552061352 -1.1793522205194913 1.2210054700665616 -1.173861069524298 1.2328993465304587 C -1.1685941947884602 1.2449017437650123 -1.1627340731730362 1.2566943341762973 -1.1579229856739537 1.2689427118243377 C -1.1479824830818641 1.2932947727595434 -1.1375427849447572 1.317465965743656 -1.1289479399088023 1.341897608577343 C -1.1246071090825625 1.3540953431990772 -1.11968026609478 1.3659964543810186 -1.115672232298552 1.3780350252057905 L -1.1038796418872667 1.4137094198794387 L -1.0980556938620616 1.4311306209287484 L -1.093107146720148 1.448436066489358 L -1.0833475120791518 1.481903872159668 C -1.0797807960835915 1.4927053061989617 -1.0779287082643958 1.5035718527006487 -1.0751144029453834 1.5138740911949249 L -1.0675251837175075 1.5438692322042429 C -1.0648266338871948 1.5534769377663205 -1.0637486608986786 1.5628024893246923 -1.0617157051283894 1.5716216106200034 L -1.0564922387008142 1.596762255821976 C -1.052896583833079 1.612497767567096 -1.0511602515025829 1.626699519086944 -1.0492502859390371 1.6382244249306108 C -1.0455967533269521 1.6613465837983825 -1.0431007756018642 1.6745282400740642 -1.0431007756018642 1.6745282400740642 C -1.0431007756018642 1.6745282400740642 -1.0424785898501032 1.6611295422570702 -1.042131323384004 1.6377252293855937 C -1.0421096192298727 1.6260122208727896 -1.0412486877826683 1.61184664294316 -1.0428186215981585 1.5954744760101915 C -1.0440340542295057 1.5791601868215732 -1.0446490052632231 1.5604367365243919 -1.047202860732661 1.540367628671076 C -1.050154625694504 1.5204287457425476 -1.052513143776761 1.4985509583782979 -1.0569769648097445 1.4758122395668445 L -1.064385316086527 1.4409119597238758 L -1.0683137679842745 1.4228613382047612 L -1.0732695498442315 1.404723900069122 L -1.0836658396730763 1.3676025617867271 C -1.087247025104724 1.355072030134981 -1.0918121321903198 1.342707896998241 -1.0960444422459037 1.330105018166058 C -1.10411838758271 1.304747331422773 -1.1147027800806917 1.2798960749425494 -1.124722864571262 1.2548277769210143 C -1.1297292894575253 1.2422827758331807 -1.1358570956405676 1.2302297355723213 -1.141348246635761 1.2179668884881933 C -1.1469985614279166 1.2057619191484155 -1.152518651295285 1.1935641845266813 -1.1588779684557264 1.1818801148860523 C -1.165021022528432 1.1702397292523652 -1.1711681216621794 1.1586014787935524 -1.1773192647434187 1.1469653656179402 C -1.1836279388833377 1.1355779194061597 -1.190320053073791 1.124566678543598 -1.1967878910048886 1.1137001320419109 L -1.2064390048752287 1.0975594760863419 C -1.2097597404573022 1.0923070707865916 -1.213210700964163 1.087199359847716 -1.2165893142905864 1.0821278224990594 C -1.2233971839697393 1.07201368667392 -1.2298794913369242 1.0620297757735684 -1.2364920236288963 1.0525161215460592 C -1.250469498889389 1.0339301308917084 -1.263123020747878 1.0160676120417311 -1.2765940657453094 1.0008457652777167 C -1.2831921286011942 0.9931480252791848 -1.289196944577493 0.9855588060513084 -1.295454975685322 0.978765405808243 L -1.313700934591617 0.9599044958682305 L -1.3219919214697353 0.9513530591405378 L -1.330297377783941 0.9439302384276677 L -1.3449621512585883 0.9310162667196038 C -1.3490208280811224 0.9271746314383814 -1.353238668700619 0.924338621965238 -1.3568198541322671 0.9217341234694941 C -1.3474798331378075 0.9223056661949489 -1.3379661789102983 0.9228338006121415 -1.3281052582166901 0.923311292003028 C -1.3141205482381537 0.9238394264202205 -1.299629407996556 0.9241071109878386 -1.2847041846723346 0.9242156317584947 C -1.2842411627175356 0.9242156317584947 -1.2837564366086056 0.9242011623224071 -1.2832934146538066 0.9242083970404509 C -1.2769992099557588 0.9288313818703964 -1.2686792842054657 0.9350821782601818 -1.258123830579659 0.9425484072813146 L -1.2158079647418634 0.9756110687411753 C -1.2077846624313633 0.9821512538527101 -1.1994502672449827 0.9893932066144869 -1.1905660334872783 0.9968594356356196 C -1.1817975552182738 1.0044703590176272 -1.1720379205772775 1.0117412506515788 -1.1627340731730367 1.0204590858942773 C -1.1438369896428056 1.037533020477488 -1.1230733488572913 1.0555691725605145 -1.1021433095567712 1.075819148364924 C -1.080670666402971 1.0954614078536595 -1.0595018814070079 1.1177154005561825 -1.0369150916744725 1.139947689104575 C -1.025679574552555 1.1511253284821428 -1.014993896001961 1.1632290117693085 -1.0037800830341745 1.1750650104888556 C -0.9926458519648693 1.1869878258249282 -0.9813307529444706 1.1989902230594813 -0.9704352675706085 1.21156416301949 L -0.9371627992874794 1.2491919315649458 L -0.9051419372259164 1.2883751644898052 C -0.8997882458735535 1.2949008801652524 -0.8941451657994419 1.3012095542993878 -0.8890229854244787 1.307901668489841 L -0.8736202707093705 1.3279346027529382 C -0.8634771960120569 1.341340535287976 -0.8529072729501626 1.3543702624847391 -0.8432561590798224 1.3678919505084766 C -0.8244965351924223 1.395297062458138 -0.8042031510797507 1.4210888322840467 -0.7876284120415578 1.4480743305871715 L -0.7621549698095731 1.487163512177462 L -0.7392498524831139 1.5255219872453356 C -0.7317908581800252 1.5379946411527312 -0.7243825069032424 1.5500693855677223 -0.7181823535397629 1.5622454160353252 C -0.7116711073004032 1.574283986860097 -0.7053913720384426 1.585924648192464 -0.6993576171899694 1.597095052851988 L -0.6904806181503087 1.613525097529306 C -0.6877458947297774 1.6189439013440623 -0.6854163155196953 1.624362705158818 -0.6828479906141702 1.6295355285600879 L -0.668646239094322 1.6591689336672188 C -0.6642402958056881 1.6685234240977662 -0.6598488219531422 1.6771544427239395 -0.6562097587771443 1.6854020212937955 L -0.6467395128578977 1.708292669184167 C -0.6410964327837858 1.7221471542379163 -0.6362708758486155 1.7328979452509037 -0.6331599470898104 1.7402845923735555 L -0.6282982165644218 1.7515852219578667 L -0.6313150939886585 1.739662406621794 C -0.6333263456048162 1.7318995541608686 -0.6360393648712164 1.7204325260615514 -0.6399750514870071 1.7060064982823473 L -0.6463633075196238 1.6820740509936782 C -0.6487941727823179 1.6733851546231544 -0.6524260012402721 1.6642621751700069 -0.6557829104125641 1.6543361420140053 L -0.6668954373277385 1.6227565977531095 C -0.6688632806356336 1.617193099577479 -0.6708455933796167 1.611434264014667 -0.673146233717524 1.6056971326059868 L -0.6806848099190941 1.5883410440190708 C -0.6911389774922883 1.5647775673506317 -0.7013761035241708 1.5385734185962305 -0.7156936105327187 1.512658658563578 L -0.736623649833239 1.4721514722367157 C -0.7441405218806778 1.4585429675964536 -0.7525979072738018 1.4450936267531538 -0.7608165469714829 1.4311812639550547 C -0.7691364727217758 1.4173267789013058 -0.7773623471375006 1.4030671496371077 -0.7868398277747912 1.3894080019705393 C -0.796089483445725 1.3753666797179345 -0.8054781978014514 1.361417457053275 -0.8150045851190437 1.347562392805588 C -0.8246918725796033 1.3336355605714 -0.8352907345136724 1.3202151586002748 -0.8454844522372924 1.3063968471367442 L -0.8609595141328377 1.2857561965579736 C -0.8661106333799757 1.278861510262296 -0.8717681828901751 1.27235749874098 -0.8771580478327563 1.265629210960308 L -0.9102858217550107 1.226040833825 L -0.9446724366168746 1.1881092071217068 C -0.9504168027435986 1.1818801148860523 -0.9559296578929233 1.175477389417349 -0.9617970142263912 1.1694653387230063 L -0.9795654817417998 1.1517764531060788 C -0.9914376540515659 1.1401502612097998 -1.0027527530719647 1.1282708541819897 -1.0146104559456433 1.1173174910637775 C -1.0265115671275844 1.1064147709718717 -1.0380292382532077 1.095504816161922 -1.0496337259953556 1.0851808735135147 C -1.0609705291698857 1.074589246297489 -1.0730380388668326 1.065270929457161 -1.0842663212707064 1.0556704586131267 C -1.0957333493700234 1.0463304376186673 -1.1063683848943113 1.0366720890302838 -1.1176473103244917 1.0284751534867338 L -1.1497983973108419 1.0042750216304466 C -1.1704969256339626 0.9889157152236007 -1.190385165536185 0.9760451518237993 -1.207741254123101 0.9644117252094763 C -1.2230979068779475 0.9549018334451868 -1.2385865349191485 0.9456067271744313 -1.2542026133999609 0.9365291218689253 C -1.2635426343944152 0.9314937581104904 -1.271464650652303 0.9274567854420872 -1.2778673761210069 0.9241794581682762 C -1.2645554949205378 0.9241649887321886 -1.2509542249983194 0.9239624166269641 -1.2370056886100018 0.923340230875203 C -1.2292066625588576 0.9273554993894749 -1.219128700323937 0.9328177115124936 -1.2067862713413282 0.9396834589359963 C -1.1919261604795002 0.9479455069419396 -1.1742517442986602 0.9586239507744899 -1.1541392281370817 0.9710170227834048 C -1.1340990591559408 0.9835764933073258 -1.1118450664534176 0.9982557362180603 -1.0878040983940922 1.0145700254066785 C -1.0639295288497725 1.031151999162915 -1.0382752186666946 1.0493545497609476 -1.0116659257018439 1.0693151368436076 C -0.9850204591467746 1.0892106114638742 -0.9575502347347196 1.1109943474935546 -0.9294578245709038 1.1338777606658828 C -0.9011990158920817 1.1565875406051611 -0.8733381167056651 1.1816124303184345 -0.8448116234592251 1.2067241366482326 C -0.8162409822475498 1.2323908206346639 -0.788402693862805 1.2588611993639658 -0.76133021195259 1.2861034630240709 C -0.7340046819014077 1.3133421764587285 -0.7071928168313324 1.341123493746664 -0.682066641065447 1.3695993439667977 C -0.6572095461632317 1.3972487606297501 -0.6331113823845702 1.4255711595447056 -0.6097990425265887 1.4545349338002342 C -0.5984622393520662 1.468628164549418 -0.5879574287525655 1.4829818451481844 -0.5770547086606594 1.4965831150704028 C -0.5667597048844273 1.510625702793289 -0.5564864052623262 1.5242414421515948 -0.5468208219558985 1.5377341913031572 L -0.5193723016979748 1.577575783569996 L -0.4945210452177511 1.615406124220677 L -0.4727300744700267 1.6509213550973634 C -0.4658064493021743 1.6622219846816746 -0.45975099029956934 1.6732259908261926 -0.45376787847740196 1.6834414127039437 L -0.44522367646775307 1.698330462437947 L -0.43769956970227075 1.7123802848788765 L -0.42428640244918947 1.7371447247425755 L -0.40000668869442135 1.7850168540379574 L -0.40456456106197325 1.7717411464277069 M -1.2828086885448773 0.8215188091277015 L -1.2538770510879882 0.7958355600724485 C -1.243495230695231 0.7868138666719131 -1.2328023174265934 0.7772640388541854 -1.221393167071626 0.7677720887808074 C -1.2103457526188455 0.7584031289141732 -1.198285477639942 0.7503436530134543 -1.185631955781453 0.7454529836158905 C -1.1794028635457987 0.7430872308155899 -1.1729277908966573 0.741756042695543 -1.1678273146758256 0.7421611869059919 C -1.1653168675146501 0.7423637590112164 -1.1632477381541426 0.743000414199065 -1.1620829485491013 0.7437745290297445 C -1.1608747506357981 0.7445703480145551 -1.160520249451655 0.7451852990482724 -1.1602670343201242 0.7460172916233018 C -1.1596954915946696 0.7475221129763983 -1.159789542929238 0.7519931687274253 -1.1623289289625882 0.756992358895645 C -1.1646150998644078 0.7619698449097334 -1.1685580211982425 0.7671426683110026 -1.1730290769492697 0.771910347501823 C -1.1777087064204808 0.7767357258702439 -1.1827227406449463 0.7812251480278292 -1.1880338821719718 0.7853452189090351 L -1.1922589575095124 0.7886804239271966 L -1.1963682773583528 0.791596015298821 C -1.1992621645758463 0.7935059808623666 -1.2018015506091966 0.7957270393017926 -1.2047388461349522 0.797586361839032 C -1.2275860857170617 0.8130758931706649 -1.251576410750081 0.8259102829802475 -1.2724702764603824 0.8365670226586666 L -1.2875474288635222 0.8442502932211113 C -1.2911828451362524 0.8459882120086761 -1.2948027584225463 0.8477583761340189 -1.298406740647161 0.8495605762652091 C -1.307081167581602 0.8528161993848913 -1.315625369591251 0.855862015681303 -1.3240827549843752 0.8587486681807526 L -1.2828086885448773 0.8215188091277017 M -1.7813965172467943 0.44386652724482883 C -1.7750154959322215 0.4244630134515365 -1.7553298281352236 0.4094871471010087 -1.733003488252263 0.40037140236590496 C -1.7274544595127197 0.3980562925919103 -1.7215581643070772 0.39601610210357757 -1.7160814827479711 0.3943448822354752 C -1.7132671774289587 0.3935128896604458 -1.7095412976364364 0.39253620272454187 -1.7069802074489546 0.3918633739464748 L -1.6976112475823202 0.38959167248074256 C -1.6851313589568804 0.3865964992106371 -1.672752756384053 0.3837170814292311 -1.6606346036608 0.3806206221065133 C -1.6364489412405998 0.37442770346107784 -1.61311697554956 0.36727256731582564 -1.5927512442564513 0.356608592919363 C -1.572392747681386 0.34606760872964376 -1.5554852116131814 0.33138113110086537 -1.5450238093219433 0.31537070007008383 C -1.5343308960533055 0.2994543203738709 -1.5296934417872725 0.283364307444608 -1.5273204542689283 0.27048650932676294 C -1.5251355694197208 0.2586939189154778 -1.5248895890062337 0.2492236729962311 -1.524752129363403 0.2423145172644658 L -1.390114026569528 0.2444632285234546 C -1.3902978681811904 0.2508816908645119 -1.3900997694019441 0.25730540615739034 -1.389520779689942 0.26370034380174157 C -1.388493449727732 0.27336592710816876 -1.3866630660626673 0.2831327964672085 -1.3835955456121245 0.2927477367473299 C -1.377402626966689 0.31191973956322283 -1.3653857602960482 0.33011505544321174 -1.3496502485509283 0.34333288530911227 C -1.333958145114071 0.35662306235545 -1.3159219930310442 0.36584732786121 -1.2978207284856238 0.3724236865629634 C -1.2796471167597658 0.37897834111058565 -1.2613215759549898 0.3835072746059626 -1.2431551989471759 0.38729103214283506 C -1.2340466889301156 0.38913588524398696 -1.2249888219393619 0.39064070659708344 -1.2159309549486077 0.39215999738626767 C -1.2069237309841598 0.3936503493032766 -1.1975547711175254 0.3949887721413672 -1.189835326964862 0.3964429504681577 C -1.1740491721934363 0.3997419818961 -1.1589937239444275 0.4050956732484625 -1.1495885904875742 0.4135819975137617 C -1.1449149626313224 0.41782154228738944 -1.1414784715605495 0.4225819867601658 -1.139402107481998 0.42833358760493356 C -1.1373402128395338 0.43408518844970134 -1.1364503425201549 0.44078453735819834 -1.1367035576516853 0.44804819427410647 C -1.1372099879147466 0.458936444929925 -1.1398651294367967 0.4706566881607728 -1.143735703590194 0.48242033969988296 C -1.1548983045429622 0.4871160590083353 -1.166006737405105 0.4919395209545546 -1.1770588148996268 0.4968897757873485 C -1.1842139510448813 0.4999934698281109 -1.1912099233931712 0.5033793178725778 -1.198292712357986 0.5066204715561705 L -1.2194687320719932 0.5164452186595603 L -1.261422862007602 0.5368037152346252 C -1.2684405385100233 0.5401533896888737 -1.275327990087657 0.5437273404024779 -1.2822877888457285 0.5471855356273825 L -1.3030658990673303 0.5577120503810145 C -1.3307531650206974 0.5717835769760755 -1.3581365728162273 0.5863977074244165 -1.3854693375854512 0.6010914197712387 C -1.409846478196338 0.6143506488491253 -1.4341101918136954 0.6278173595974923 -1.4582578358233622 0.6414900853273949 C -1.5095952937123145 0.6144135509988793 -1.5614614125037152 0.5883514474067727 -1.6138259779178263 0.5633189568649173 C -1.6277238712798576 0.556800475907504 -1.641542182743388 0.5501373005892257 -1.6555630663121428 0.5438575653272655 C -1.669562245726767 0.5375416564750863 -1.6835035473970406 0.5311099921342075 -1.6975533698379706 0.5248881346165971 C -1.7116900088954252 0.5188254408959486 -1.7257036577461364 0.5125312361979006 -1.739948817574247 0.5066638798644332 C -1.7527086052351528 0.5013042801667925 -1.7655468048893792 0.4961333051416821 -1.7784592217210253 0.49115264437867434 C -1.784152944821457 0.47425957774655203 -1.7861135534113086 0.4576703692722719 -1.7813965172467947 0.44386652724482883 M -1.4416252190409087 0.9828530215029522 L -1.4405906543606553 0.9935097611813711 C -1.4396790798871446 1.0061777524759479 -1.438340657049054 1.0197934918342537 -1.4376461241168557 1.0341616418691078 C -1.436582620564427 1.048508087749831 -1.4363945178952897 1.063570770716883 -1.4360978944554967 1.079002424304166 L -1.4362570582524588 1.0903319927606523 C -1.4363438748689834 1.0940940461433937 -1.4362136499441962 1.0978850383983096 -1.4364813345118144 1.102131817889981 L -1.4369949994929196 1.1145900023612896 L -1.4372988576507564 1.1192491607814539 C -1.4374218478574998 1.1209276153676 -1.4377401754514243 1.1224975491830902 -1.4379282781205611 1.1241398301790175 C -1.4387819748497215 1.1305859639559839 -1.4406412973869611 1.1363737383909704 -1.4431083362398742 1.1407362733713415 C -1.445662191709312 1.1450988083517126 -1.4487441815959423 1.1474428569978823 -1.4513920883999487 1.1479275831068123 C -1.4539965868956928 1.14848465639618 -1.4573969043762474 1.1473343362272264 -1.4605367720072275 1.1433118329949106 C -1.4635681188675518 1.1392676256084635 -1.4656661871002343 1.1330312986547657 -1.4662087909535142 1.126158316513219 C -1.4675399790735613 1.112166371816639 -1.4638864464614758 1.097552241368298 -1.459220053323268 1.0818311990592657 L -1.4559210218953256 1.0701181905464616 L -1.4530994818582699 1.0585064680862701 C -1.451109934396243 1.050888309986219 -1.4497136338138028 1.043291856040299 -1.4482811596411436 1.035941382507866 C -1.446805277160222 1.028590908975433 -1.4459009374047551 1.0213272520595251 -1.444743382517758 1.014389157455585 C -1.443947563532947 1.007371480953164 -1.442978111315087 1.000643193172492 -1.442464446333982 0.9941247122150884 C -1.4421244145859267 0.9902613727797346 -1.4418567300183085 0.9865210235511247 -1.4416252190409087 0.982853021502952 M -1.4397080187593199 0.8894383421222688 C -1.4601316277967786 0.8933233857117536 -1.4780737285452368 0.8963474978540339 -1.4929338394070646 0.8983153411619295 C -1.5077939502688928 0.9002687150337375 -1.5195286629358278 0.9017445975146591 -1.5275591999643718 0.90242466101077 C -1.5303158159794366 0.9026819418596196 -1.5330747755300804 0.9029134629407924 -1.5358357174064046 0.9031191939429686 C -1.536421729567945 0.9017445975146591 -1.541927349999226 0.8888740341148577 -1.552345343982202 0.8675677894760634 C -1.558990372687365 0.8540195035006956 -1.5658230153838426 0.8405640451160689 -1.5728413002000994 0.8272052975100732 C -1.5819853518693492 0.8098992235607355 -1.5914110311980454 0.7927434259494214 -1.6011145783150147 0.7757447480649882 C -1.6224280576718453 0.7383629599330324 -1.6484802773473286 0.6954032041893446 -1.6778315284507541 0.650273033032537 C -1.6853647465122528 0.6388691251989889 -1.692893676950869 0.6274623856170946 -1.7004183181703985 0.6160528167052198 L -1.7241192544945592 0.5812465881772785 L -1.7485653667643337 0.5464548291049656 C -1.7505983225346227 0.54351753357921 -1.752703625485349 0.5406742893880228 -1.754678703511288 0.5376574119637861 C -1.7565090871763527 0.5347996983365113 -1.7584407568940295 0.531992627735543 -1.7601915586606127 0.529113209954137 C -1.7637076316298672 0.5233616091093692 -1.7670138977758534 0.5175376610841639 -1.769929489147478 0.5116341311604776 C -1.7729779725908565 0.5055375765409466 -1.7756454677796736 0.49925784828393993 -1.777916617867759 0.49283109896481536 C -1.7668945599964372 0.5004796925171664 -1.7557689455085659 0.5079779659710562 -1.7445428635320206 0.5153238373627798 C -1.7317084737224353 0.5238318657822117 -1.718642572935453 0.5319202805551057 -1.7057068970732585 0.5402402063053987 C -1.6926844045945384 0.5483937335406861 -1.679546156627119 0.5563374539527051 -1.6664730211220933 0.5644041645714678 C -1.6534215897711984 0.5724998140624051 -1.6401603515970355 0.5802192582150685 -1.6269786953213536 0.5880761620105627 C -1.574078668066674 0.6191233170722583 -1.5205373652445522 0.6490646691437547 -1.4663896589045917 0.6778807170874315 L -1.4576935278160406 0.6825181713534557 L -1.4490625091898668 0.6776419713919797 C -1.4220545727918266 0.6623685487567259 -1.3951932491521428 0.6468373111701247 -1.3684822196187776 0.6310503871903443 C -1.341836753063697 0.6151340074941248 -1.3152419295349338 0.5991525153355183 -1.2889509641640073 0.5826139498875441 L -1.269243592212878 0.5701919390064542 C -1.262710641819387 0.5659958025410887 -1.256098109527415 0.561922656282467 -1.2496230368782737 0.5576179990464459 L -1.2106134371864643 0.5320722096340238 L -1.1913039747277405 0.5189411963846482 C -1.184886779822949 0.5145352530960144 -1.1783900030196768 0.510266769450212 -1.1720523900133664 0.5057233665187476 C -1.1630524007669623 0.4994146923846122 -1.1541030545468645 0.4930192016339521 -1.1452115860711163 0.4865296595487234 C -1.1461376299807142 0.4891775663527299 -1.1470419697361809 0.49181823843869243 -1.1480765344164348 0.4944516758066112 C -1.154298391934045 0.5103101777584745 -1.1621408262934518 0.525589902266839 -1.1706705588670134 0.5414194653465271 L -1.1962308177155228 0.5890239100742917 L -1.2218272501542509 0.636765814444887 C -1.2304582687804246 0.652631551114794 -1.2387347862224554 0.6686998598899251 -1.247206641051667 0.6846668826124446 C -1.2555989139823973 0.700677313643226 -1.2641720548642212 0.7165792239033516 -1.2723834598438586 0.7326981757047892 L -1.2972419510421258 0.7809248061843147 L -1.321637420285594 0.8294263559495021 C -1.3272732656416621 0.840712516097726 -1.3327354777646807 0.852099962298562 -1.3382193940418305 0.8634657043452668 C -1.3493579571562284 0.8670823936470803 -1.3605796678741224 0.870437810587878 -1.3718753023812797 0.8735291971441004 C -1.3964588742938826 0.8801779030262906 -1.4192844097218609 0.8854881860703907 -1.4397080187593199 0.889438342122269 M -1.2407388031205693 0.8934753147906721 C -1.2556067938306332 0.8949595113768967 -1.2705038405175682 0.8961366096254758 -1.2854204217586642 0.8970058571960138 C -1.3129371150961422 0.8984185097420095 -1.3404729788998233 0.8994290665374672 -1.3680191976639766 0.9000372040563385 L -1.4208977518456134 0.9008185536050615 C -1.4043230128074207 0.8990315782482593 -1.3863881467770058 0.8966513560118712 -1.3674259507843813 0.8929471803734798 C -1.341815048909566 0.8879986332315664 -1.3140264969035866 0.8819287047928741 -1.2854204217586656 0.872574214362327 C -1.2661668986236738 0.8664139328189155 -1.247191463733136 0.8594161226487503 -1.2285483032168767 0.8516007667535437 C -1.2271302984803072 0.8510436934641771 -1.2257339978978667 0.8505227937650283 -1.2243015237252075 0.8499440163215295 C -1.2228979884247233 0.849336300005856 -1.2214582795340203 0.8486779406638763 -1.2200475095154923 0.8480485201940715 L -1.21897677124502 0.847571028803185 C -1.2139631116407128 0.8453355009276715 -1.2088915742920556 0.8429986869995456 -1.2037766286351363 0.8403869537857581 C -1.2016279173761477 0.8393451543874604 -1.1994719713991153 0.8384191104778628 -1.1973304948581702 0.8373411374893465 C -1.1899293782994311 0.8337671867757424 -1.1824920881504735 0.8296723363629892 -1.174989685539122 0.8256064248224111 C -1.1674945176458145 0.8214971049735706 -1.1608385770455798 0.8174384281510364 -1.1533361744342288 0.8130975973247964 C -1.1398868335909287 0.8050525908601649 -1.1256778473530367 0.7982881294892745 -1.1113169320362262 0.7934915114262793 C -1.0971224152344217 0.7887600058256778 -1.0820307933951943 0.7862133850742837 -1.0700645697508595 0.7887021280813278 C -1.0641248662369547 0.7898596829683252 -1.0593499523280907 0.7922688440768882 -1.0563909526482038 0.7952495479109064 C -1.0534030140961421 0.7982302517449245 -1.0518909580250018 0.8018114371765724 -1.0516232734573836 0.8064850650328241 C -1.05144240550629 0.8111369887349446 -1.052751889472206 0.816736660500794 -1.055435969866431 0.8223363322666436 C -1.0580983461065248 0.8279504734685805 -1.0622293701094965 0.8334488591818178 -1.0670838659168413 0.8385203965304746 C -1.076937551892406 0.8486707059458323 -1.0898876971906883 0.8569038150796007 -1.1037566516805248 0.8632920711122171 C -1.1319937562052156 0.8756706736850447 -1.1638048114435104 0.8830645555257399 -1.1946391797459015 0.8878828777428662 C -1.2101287110775343 0.8903354471596919 -1.225560364664817 0.8919921975917067 -1.2407388031205693 0.893475314790672" fill="#574848" transform="matrix(1,0,0,1,0,0)" fill-rule="nonzero"></path></g></g></g><defs><clipPath id="SvgjsClipPath1002"><path d=" M -2.352005964074075 -0.047949331026959974 h 1.9520059640740748 v 2.0606789354914197 h -1.9520059640740748 Z"></path></clipPath><clipPath id="aaf821eba-a117-4b61-88d5-f16c6d2ec0fdfdc1e45a-03a1-44d9-93b6-663d72df1562"><path d=" M -2.352005964074075 2.0127296044644596 L -0.4000066886944209 2.0127296044644596 L -0.4000066886944209 -0.047942370650110575 L -2.352005964074075 -0.047942370650110575 Z"></path></clipPath></defs></svg>